<svg xmlns="http://www.w3.org/2000/svg" xmlns:xlink="http://www.w3.org/1999/xlink" width="500" zoomAndPan="magnify" viewBox="0 0 375 374.999991" height="500" preserveAspectRatio="xMidYMid meet" version="1.0"><defs><g/><clipPath id="id1"><path d="M 101 98 L 274 98 L 274 167.542969 L 101 167.542969 Z M 101 98 " clip-rule="nonzero"/></clipPath><clipPath id="id2"><path d="M 101 98 L 274 98 L 274 167.542969 L 101 167.542969 Z M 101 98 " clip-rule="nonzero"/></clipPath><clipPath id="id3"><path d="M 158 43.042969 L 185 43.042969 L 185 100 L 158 100 Z M 158 43.042969 " clip-rule="nonzero"/></clipPath><clipPath id="id4"><path d="M 121 43.042969 L 148 43.042969 L 148 100 L 121 100 Z M 121 43.042969 " clip-rule="nonzero"/></clipPath></defs><path fill="#f7941d" d="M 187.5 0 C 83.945312 0 0 83.945312 0 187.5 C 0 291.054688 83.945312 375 187.5 375 C 291.054688 375 375 291.054688 375 187.5 C 375 83.945312 291.054688 0 187.5 0 " fill-opacity="1" fill-rule="nonzero"/><path fill="#ffffff" d="M 268.152344 120.9375 C 259.457031 115.058594 245.308594 108.851562 245.324219 108.804688 C 213.183594 96.636719 177.933594 95.839844 145.382812 106.394531 C 145.300781 106.421875 145.21875 106.4375 145.132812 106.464844 C 143.535156 106.960938 141.960938 107.523438 140.402344 108.117188 C 139.777344 108.34375 139.144531 108.566406 138.519531 108.804688 L 138.535156 108.847656 C 125.28125 114.25 113.578125 122.976562 104.609375 134.242188 C 100.894531 138.894531 101.582031 144.953125 105.457031 147.1875 C 105.746094 147.359375 106.035156 147.535156 106.324219 147.714844 C 110.214844 149.960938 115.246094 148.550781 118.089844 145.015625 C 125.121094 136.179688 134.273438 129.316406 144.632812 125.015625 C 145.632812 127.667969 146.632812 130.316406 147.632812 132.972656 C 138.367188 137.195312 129.894531 143.09375 122.675781 150.429688 C 118.496094 154.671875 118.546875 160.765625 122.167969 163.390625 C 122.4375 163.597656 122.707031 163.804688 122.976562 164.007812 C 126.609375 166.652344 131.761719 165.777344 134.957031 162.558594 C 140.457031 156.96875 146.878906 152.433594 153.886719 149.109375 C 178.257812 139.925781 205.113281 139.875 229.515625 148.949219 C 236.820312 152.453125 243.46875 157.28125 249.097656 163.238281 C 252.226562 166.519531 257.359375 167.496094 261.046875 164.925781 C 261.320312 164.730469 261.59375 164.527344 261.867188 164.328125 C 265.539062 161.78125 265.710938 155.683594 261.621094 151.359375 C 254.339844 143.65625 245.695312 137.449219 236.195312 133.007812 C 237.1875 130.375 238.179688 127.742188 239.175781 125.109375 C 245.851562 127.320312 252.175781 130.578125 257.890625 134.816406 C 261.542969 137.507812 266.765625 137.574219 269.949219 134.398438 C 270.183594 134.152344 270.417969 133.910156 270.652344 133.664062 C 273.828125 130.511719 273.082031 124.269531 268.152344 120.9375 " fill-opacity="1" fill-rule="nonzero"/><g clip-path="url(#id1)"><path fill="#f7941d" d="M 268.152344 120.9375 L 268.507812 120.410156 C 264.117188 117.445312 258.394531 114.421875 253.761719 112.121094 C 251.445312 110.972656 249.402344 110.003906 247.9375 109.324219 C 247.203125 108.980469 246.617188 108.710938 246.214844 108.527344 C 246.011719 108.429688 245.859375 108.359375 245.753906 108.3125 C 245.703125 108.285156 245.667969 108.269531 245.648438 108.261719 L 245.636719 108.253906 L 245.5 108.527344 L 245.652344 108.265625 L 245.636719 108.253906 L 245.5 108.527344 L 245.652344 108.265625 L 245.355469 108.769531 L 245.707031 108.300781 L 245.652344 108.265625 L 245.355469 108.769531 L 245.707031 108.300781 L 245.332031 108.800781 L 245.789062 108.371094 C 245.746094 108.328125 245.722656 108.3125 245.707031 108.300781 L 245.332031 108.800781 L 245.789062 108.371094 L 245.328125 108.804688 L 245.871094 108.484375 C 245.835938 108.425781 245.808594 108.394531 245.789062 108.371094 L 245.328125 108.804688 L 245.871094 108.484375 L 245.324219 108.804688 L 245.957031 108.804688 C 245.957031 108.636719 245.902344 108.542969 245.871094 108.484375 L 245.324219 108.804688 L 245.957031 108.804688 C 245.957031 108.539062 245.796875 108.304688 245.550781 108.210938 C 228.269531 101.671875 210.09375 98.402344 191.914062 98.402344 C 176.144531 98.402344 160.375 100.867188 145.1875 105.792969 L 145.382812 106.394531 L 145.199219 105.789062 C 145.160156 105.804688 145.070312 105.820312 144.945312 105.859375 C 143.328125 106.363281 141.746094 106.929688 140.179688 107.523438 L 140.402344 108.117188 L 140.1875 107.519531 C 139.5625 107.746094 138.929688 107.972656 138.292969 108.210938 C 138.136719 108.273438 138.007812 108.390625 137.941406 108.546875 C 137.871094 108.703125 137.867188 108.875 137.925781 109.03125 L 137.941406 109.078125 L 138.535156 108.847656 L 138.296875 108.261719 C 124.941406 113.703125 113.148438 122.496094 104.109375 133.84375 C 102.355469 136.046875 101.523438 138.5625 101.523438 140.898438 C 101.523438 142.328125 101.835938 143.691406 102.445312 144.875 C 103.050781 146.058594 103.964844 147.058594 105.140625 147.734375 L 105.457031 147.1875 L 105.132812 147.730469 C 105.417969 147.902344 105.707031 148.078125 105.996094 148.257812 L 106.007812 148.261719 C 107.390625 149.0625 108.914062 149.433594 110.429688 149.433594 C 113.503906 149.429688 116.558594 147.925781 118.582031 145.410156 C 125.550781 136.660156 134.613281 129.863281 144.875 125.601562 L 144.632812 125.015625 L 144.039062 125.238281 C 145.042969 127.890625 146.039062 130.542969 147.039062 133.195312 L 147.632812 132.972656 L 147.371094 132.394531 C 138.039062 136.652344 129.5 142.59375 122.222656 149.988281 C 119.960938 152.28125 118.859375 155.109375 118.859375 157.726562 C 118.859375 158.960938 119.105469 160.148438 119.597656 161.210938 C 120.085938 162.273438 120.828125 163.203125 121.796875 163.90625 L 122.167969 163.390625 L 121.785156 163.898438 C 122.054688 164.101562 122.324219 164.308594 122.589844 164.511719 L 122.601562 164.523438 C 124.179688 165.671875 126.027344 166.203125 127.878906 166.203125 C 130.621094 166.199219 133.375 165.046875 135.40625 163.003906 L 135.410156 163.003906 C 140.855469 157.464844 147.214844 152.976562 154.160156 149.683594 L 153.886719 149.109375 L 154.109375 149.703125 C 166.296875 145.109375 179.109375 142.816406 191.921875 142.816406 C 204.582031 142.816406 217.238281 145.0625 229.292969 149.542969 L 229.515625 148.949219 L 229.238281 149.519531 C 236.476562 152.996094 243.0625 157.777344 248.636719 163.671875 L 248.640625 163.675781 C 250.671875 165.804688 253.488281 167.023438 256.296875 167.023438 C 258.078125 167.023438 259.863281 166.527344 261.410156 165.449219 L 261.421875 165.441406 C 261.695312 165.238281 261.96875 165.039062 262.238281 164.84375 L 261.867188 164.328125 L 262.226562 164.851562 C 263.238281 164.152344 264.007812 163.203125 264.519531 162.121094 C 265.03125 161.035156 265.289062 159.8125 265.289062 158.542969 C 265.289062 155.976562 264.242188 153.207031 262.082031 150.921875 C 254.742188 143.160156 246.035156 136.90625 236.464844 132.429688 L 236.195312 133.007812 L 236.785156 133.230469 C 237.78125 130.597656 238.773438 127.964844 239.765625 125.332031 L 239.175781 125.109375 L 238.972656 125.710938 C 245.589844 127.902344 251.855469 131.132812 257.511719 135.328125 L 257.515625 135.328125 C 259.394531 136.714844 261.664062 137.441406 263.898438 137.445312 C 266.273438 137.445312 268.625 136.613281 270.398438 134.847656 L 270.40625 134.835938 C 270.640625 134.59375 270.875 134.351562 271.113281 134.101562 L 270.652344 133.664062 L 271.097656 134.117188 C 272.503906 132.722656 273.199219 130.792969 273.199219 128.785156 C 273.199219 125.769531 271.636719 122.527344 268.507812 120.410156 L 268.152344 120.9375 L 267.800781 121.464844 C 270.589844 123.347656 271.929688 126.203125 271.929688 128.785156 C 271.929688 130.507812 271.339844 132.089844 270.207031 133.214844 L 270.191406 133.226562 C 269.960938 133.46875 269.726562 133.710938 269.492188 133.960938 L 269.949219 134.398438 L 269.503906 133.949219 C 267.992188 135.453125 265.984375 136.171875 263.898438 136.171875 C 261.941406 136.175781 259.921875 135.53125 258.265625 134.308594 C 252.5 130.03125 246.113281 126.738281 239.375 124.503906 C 239.050781 124.398438 238.699219 124.5625 238.582031 124.882812 C 237.589844 127.515625 236.59375 130.148438 235.601562 132.78125 C 235.484375 133.09375 235.628906 133.441406 235.925781 133.582031 C 245.359375 137.992188 253.933594 144.148438 261.160156 151.796875 C 263.109375 153.855469 264.023438 156.324219 264.019531 158.542969 C 264.019531 159.640625 263.796875 160.679688 263.375 161.578125 C 262.949219 162.476562 262.324219 163.238281 261.503906 163.808594 L 261.492188 163.816406 C 261.21875 164.015625 260.949219 164.214844 260.675781 164.417969 L 261.046875 164.925781 L 260.683594 164.40625 C 259.363281 165.328125 257.847656 165.753906 256.296875 165.753906 C 253.855469 165.757812 251.347656 164.679688 249.554688 162.796875 L 249.558594 162.800781 C 243.875 156.789062 237.164062 151.914062 229.789062 148.378906 L 229.734375 148.351562 C 217.535156 143.816406 204.730469 141.546875 191.921875 141.546875 C 178.960938 141.546875 165.996094 143.867188 153.664062 148.515625 L 153.617188 148.535156 C 146.539062 151.890625 140.058594 156.46875 134.507812 162.113281 L 134.507812 162.109375 C 132.71875 163.914062 130.261719 164.933594 127.878906 164.933594 C 126.265625 164.929688 124.695312 164.476562 123.347656 163.496094 L 122.976562 164.007812 L 123.359375 163.503906 C 123.089844 163.300781 122.820312 163.09375 122.550781 162.886719 L 122.539062 162.878906 C 121.753906 162.308594 121.152344 161.554688 120.746094 160.679688 C 120.339844 159.800781 120.128906 158.792969 120.128906 157.726562 C 120.128906 155.464844 121.085938 152.945312 123.125 150.875 C 130.289062 143.597656 138.699219 137.742188 147.898438 133.546875 C 148.199219 133.40625 148.34375 133.058594 148.226562 132.746094 C 147.226562 130.09375 146.226562 127.441406 145.222656 124.789062 C 145.164062 124.628906 145.042969 124.5 144.882812 124.433594 C 144.726562 124.363281 144.550781 124.363281 144.390625 124.429688 C 133.929688 128.773438 124.691406 135.703125 117.59375 144.617188 C 115.8125 146.839844 113.089844 148.167969 110.429688 148.164062 C 109.117188 148.164062 107.824219 147.84375 106.640625 147.164062 L 106.324219 147.714844 L 106.652344 147.167969 C 106.363281 146.996094 106.074219 146.816406 105.78125 146.640625 L 105.773438 146.636719 C 104.816406 146.085938 104.078125 145.277344 103.570312 144.292969 C 103.0625 143.308594 102.789062 142.140625 102.789062 140.898438 C 102.789062 138.863281 103.515625 136.621094 105.101562 134.636719 C 114.007812 123.457031 125.617188 114.796875 138.773438 109.4375 C 139.09375 109.304688 139.25 108.945312 139.125 108.621094 L 139.109375 108.578125 L 138.519531 108.804688 L 138.742188 109.398438 C 139.359375 109.164062 139.988281 108.941406 140.621094 108.710938 L 140.628906 108.710938 C 142.179688 108.121094 143.738281 107.5625 145.320312 107.070312 C 145.359375 107.054688 145.441406 107.042969 145.566406 107.003906 L 145.578125 107 C 160.636719 102.117188 176.277344 99.671875 191.914062 99.671875 C 209.941406 99.671875 227.964844 102.914062 245.101562 109.398438 L 245.324219 108.804688 L 244.691406 108.804688 C 244.691406 108.917969 244.71875 109 244.742188 109.054688 C 244.792969 109.167969 244.835938 109.207031 244.863281 109.238281 C 244.917969 109.296875 244.941406 109.3125 244.960938 109.324219 L 245.023438 109.363281 C 245.066406 109.386719 245.09375 109.398438 245.136719 109.421875 C 245.296875 109.5 245.628906 109.652344 246.125 109.878906 C 247.84375 110.675781 251.460938 112.351562 255.550781 114.441406 C 259.644531 116.53125 264.207031 119.035156 267.800781 121.464844 L 268.152344 120.9375 " fill-opacity="1" fill-rule="nonzero"/></g><path fill="#ffffff" d="M 268.492188 120.9375 C 259.796875 115.058594 245.644531 108.851562 245.664062 108.804688 C 213.523438 96.636719 178.273438 95.839844 145.722656 106.394531 C 145.636719 106.421875 145.554688 106.4375 145.46875 106.464844 C 143.875 106.960938 142.300781 107.523438 140.742188 108.117188 C 140.113281 108.34375 139.480469 108.566406 138.855469 108.804688 L 138.871094 108.847656 C 125.617188 114.25 113.917969 122.976562 104.945312 134.242188 C 101.230469 138.894531 101.917969 144.953125 105.796875 147.1875 C 106.082031 147.359375 106.371094 147.535156 106.664062 147.714844 C 110.550781 149.960938 115.585938 148.550781 118.425781 145.015625 C 125.457031 136.179688 134.609375 129.316406 144.972656 125.015625 C 145.972656 127.667969 146.972656 130.316406 147.972656 132.972656 C 138.707031 137.195312 130.230469 143.09375 123.011719 150.429688 C 118.835938 154.671875 118.886719 160.765625 122.507812 163.390625 C 122.773438 163.597656 123.046875 163.804688 123.3125 164.007812 C 126.949219 166.652344 132.097656 165.777344 135.296875 162.558594 C 140.796875 156.96875 147.214844 152.433594 154.226562 149.109375 C 178.59375 139.925781 205.449219 139.875 229.851562 148.949219 C 237.160156 152.453125 243.808594 157.28125 249.4375 163.238281 C 252.566406 166.519531 257.699219 167.496094 261.382812 164.925781 C 261.660156 164.730469 261.929688 164.527344 262.203125 164.328125 C 265.878906 161.78125 266.050781 155.683594 261.960938 151.359375 C 254.675781 143.65625 246.035156 137.449219 236.53125 133.007812 C 237.527344 130.375 238.519531 127.742188 239.511719 125.109375 C 246.191406 127.320312 252.515625 130.578125 258.226562 134.816406 C 261.878906 137.507812 267.105469 137.574219 270.289062 134.398438 C 270.523438 134.152344 270.757812 133.910156 270.992188 133.664062 C 274.164062 130.511719 273.421875 124.269531 268.492188 120.9375 " fill-opacity="1" fill-rule="nonzero"/><g clip-path="url(#id2)"><path fill="#f7941d" d="M 268.492188 120.9375 L 268.847656 120.410156 C 264.457031 117.445312 258.734375 114.417969 254.097656 112.121094 C 251.78125 110.972656 249.738281 110.003906 248.273438 109.324219 C 247.542969 108.980469 246.957031 108.710938 246.554688 108.527344 C 246.351562 108.429688 246.195312 108.359375 246.09375 108.3125 C 246.042969 108.285156 246.003906 108.269531 245.984375 108.261719 L 245.976562 108.253906 L 245.835938 108.527344 L 245.992188 108.265625 L 245.976562 108.253906 L 245.835938 108.527344 L 245.992188 108.265625 L 245.691406 108.769531 L 246.042969 108.300781 L 245.992188 108.265625 L 245.691406 108.769531 L 246.042969 108.300781 L 245.671875 108.800781 L 246.125 108.371094 C 246.085938 108.328125 246.0625 108.3125 246.042969 108.300781 L 245.671875 108.800781 L 246.125 108.371094 L 245.664062 108.804688 L 246.207031 108.484375 C 246.171875 108.425781 246.148438 108.394531 246.125 108.371094 L 245.664062 108.804688 L 246.207031 108.484375 L 245.664062 108.804688 L 246.296875 108.804688 C 246.292969 108.636719 246.242188 108.542969 246.207031 108.484375 L 245.664062 108.804688 L 246.296875 108.804688 C 246.296875 108.539062 246.132812 108.304688 245.886719 108.210938 C 228.605469 101.671875 210.429688 98.402344 192.253906 98.402344 C 176.484375 98.402344 160.710938 100.867188 145.523438 105.792969 L 145.722656 106.394531 L 145.539062 105.789062 C 145.496094 105.804688 145.410156 105.820312 145.28125 105.859375 C 143.667969 106.363281 142.082031 106.929688 140.519531 107.523438 L 140.742188 108.117188 L 140.527344 107.519531 C 139.902344 107.746094 139.269531 107.972656 138.628906 108.214844 C 138.304688 108.335938 138.140625 108.703125 138.261719 109.027344 L 138.277344 109.070312 L 138.871094 108.847656 L 138.632812 108.261719 C 125.277344 113.703125 113.488281 122.496094 104.449219 133.84375 C 102.691406 136.046875 101.863281 138.5625 101.863281 140.898438 C 101.863281 142.324219 102.171875 143.691406 102.78125 144.875 C 103.390625 146.058594 104.300781 147.058594 105.480469 147.734375 L 105.796875 147.1875 L 105.46875 147.730469 C 105.753906 147.902344 106.042969 148.078125 106.335938 148.257812 L 106.347656 148.261719 C 107.730469 149.0625 109.253906 149.433594 110.769531 149.433594 C 113.84375 149.429688 116.894531 147.925781 118.917969 145.410156 L 118.921875 145.410156 C 125.886719 136.660156 134.953125 129.863281 145.214844 125.601562 L 144.972656 125.015625 L 144.378906 125.238281 C 145.378906 127.890625 146.378906 130.542969 147.378906 133.195312 L 147.972656 132.972656 L 147.710938 132.394531 C 138.375 136.652344 129.835938 142.59375 122.5625 149.988281 C 120.300781 152.28125 119.199219 155.109375 119.199219 157.726562 C 119.199219 158.960938 119.445312 160.148438 119.9375 161.210938 C 120.425781 162.273438 121.164062 163.203125 122.136719 163.90625 L 122.507812 163.390625 L 122.121094 163.898438 C 122.390625 164.101562 122.660156 164.308594 122.929688 164.511719 L 122.941406 164.523438 C 124.519531 165.671875 126.367188 166.203125 128.214844 166.203125 C 130.957031 166.199219 133.714844 165.046875 135.746094 163.003906 C 141.195312 157.46875 147.554688 152.976562 154.496094 149.683594 L 154.226562 149.109375 L 154.449219 149.703125 C 166.636719 145.109375 179.449219 142.816406 192.261719 142.816406 C 204.917969 142.816406 217.574219 145.0625 229.628906 149.542969 L 229.851562 148.949219 L 229.578125 149.519531 C 236.816406 152.996094 243.402344 157.777344 248.976562 163.671875 L 248.976562 163.675781 C 251.011719 165.804688 253.828125 167.023438 256.636719 167.023438 C 258.417969 167.023438 260.203125 166.527344 261.746094 165.449219 L 261.757812 165.441406 C 262.03125 165.238281 262.304688 165.039062 262.578125 164.84375 L 262.203125 164.328125 L 262.566406 164.851562 C 263.574219 164.152344 264.347656 163.203125 264.859375 162.121094 C 265.371094 161.035156 265.628906 159.8125 265.628906 158.542969 C 265.628906 155.976562 264.582031 153.207031 262.421875 150.921875 C 255.082031 143.160156 246.375 136.90625 236.800781 132.429688 L 236.53125 133.007812 L 237.125 133.230469 C 238.117188 130.597656 239.113281 127.964844 240.105469 125.332031 L 239.511719 125.109375 L 239.3125 125.710938 C 245.929688 127.902344 252.195312 131.132812 257.851562 135.328125 C 259.734375 136.714844 262.003906 137.441406 264.238281 137.445312 C 266.613281 137.445312 268.964844 136.613281 270.734375 134.847656 L 270.746094 134.839844 C 270.980469 134.59375 271.214844 134.351562 271.449219 134.101562 L 270.992188 133.664062 L 271.4375 134.117188 C 272.839844 132.722656 273.535156 130.792969 273.535156 128.785156 C 273.535156 125.769531 271.976562 122.527344 268.847656 120.410156 L 268.492188 120.9375 L 268.140625 121.464844 C 270.925781 123.347656 272.269531 126.203125 272.269531 128.785156 C 272.265625 130.507812 271.679688 132.089844 270.542969 133.214844 L 270.53125 133.226562 C 270.300781 133.472656 270.066406 133.714844 269.832031 133.960938 L 270.289062 134.398438 L 269.839844 133.949219 C 268.332031 135.453125 266.324219 136.171875 264.238281 136.171875 C 262.277344 136.175781 260.261719 135.53125 258.601562 134.308594 L 258.605469 134.308594 C 252.839844 130.03125 246.453125 126.738281 239.710938 124.503906 C 239.386719 124.398438 239.039062 124.5625 238.917969 124.882812 C 237.925781 127.515625 236.933594 130.148438 235.941406 132.78125 C 235.824219 133.09375 235.964844 133.441406 236.265625 133.582031 C 245.695312 137.992188 254.273438 144.148438 261.5 151.796875 C 263.449219 153.855469 264.359375 156.324219 264.359375 158.542969 C 264.359375 159.640625 264.136719 160.679688 263.710938 161.578125 C 263.285156 162.476562 262.660156 163.238281 261.84375 163.808594 L 261.832031 163.816406 C 261.558594 164.015625 261.285156 164.214844 261.011719 164.417969 L 261.382812 164.925781 L 261.023438 164.40625 C 259.703125 165.328125 258.183594 165.753906 256.636719 165.753906 C 254.195312 165.757812 251.6875 164.679688 249.894531 162.796875 L 249.894531 162.800781 C 244.214844 156.789062 237.5 151.914062 230.125 148.378906 L 230.070312 148.351562 C 217.875 143.816406 205.070312 141.546875 192.261719 141.546875 C 179.296875 141.546875 166.335938 143.867188 154.003906 148.515625 L 153.957031 148.535156 C 146.878906 151.890625 140.398438 156.46875 134.84375 162.113281 L 134.84375 162.109375 C 133.058594 163.914062 130.601562 164.933594 128.214844 164.933594 C 126.605469 164.929688 125.035156 164.476562 123.6875 163.496094 L 123.3125 164.007812 L 123.699219 163.503906 C 123.429688 163.296875 123.160156 163.09375 122.890625 162.890625 L 122.878906 162.878906 C 122.089844 162.308594 121.492188 161.554688 121.085938 160.679688 C 120.679688 159.800781 120.464844 158.792969 120.464844 157.726562 C 120.464844 155.464844 121.425781 152.945312 123.464844 150.875 C 130.628906 143.597656 139.039062 137.742188 148.234375 133.546875 C 148.539062 133.40625 148.683594 133.058594 148.5625 132.746094 C 147.5625 130.09375 146.5625 127.441406 145.566406 124.789062 C 145.503906 124.628906 145.382812 124.5 145.222656 124.433594 C 145.066406 124.363281 144.886719 124.363281 144.730469 124.429688 C 134.269531 128.773438 125.03125 135.703125 117.929688 144.617188 L 117.933594 144.617188 C 116.148438 146.839844 113.425781 148.167969 110.769531 148.164062 C 109.457031 148.164062 108.164062 147.84375 106.980469 147.164062 L 106.664062 147.714844 L 106.992188 147.167969 C 106.703125 146.996094 106.414062 146.816406 106.121094 146.640625 L 106.113281 146.636719 C 105.15625 146.085938 104.417969 145.277344 103.910156 144.292969 C 103.398438 143.308594 103.128906 142.140625 103.128906 140.898438 C 103.128906 138.863281 103.855469 136.621094 105.4375 134.636719 C 114.34375 123.457031 125.957031 114.796875 139.109375 109.4375 C 139.429688 109.308594 139.585938 108.949219 139.464844 108.625 L 139.449219 108.585938 L 138.855469 108.804688 L 139.082031 109.398438 C 139.695312 109.164062 140.324219 108.941406 140.960938 108.710938 L 140.96875 108.710938 C 142.519531 108.121094 144.078125 107.5625 145.660156 107.070312 C 145.695312 107.054688 145.777344 107.042969 145.90625 107.003906 L 145.917969 107 C 160.976562 102.117188 176.613281 99.671875 192.253906 99.671875 C 210.277344 99.671875 228.300781 102.914062 245.441406 109.398438 L 245.664062 108.804688 L 245.03125 108.804688 C 245.03125 108.917969 245.058594 109 245.082031 109.058594 C 245.132812 109.167969 245.171875 109.207031 245.203125 109.242188 C 245.257812 109.296875 245.28125 109.3125 245.300781 109.324219 L 245.363281 109.363281 C 245.40625 109.386719 245.429688 109.398438 245.472656 109.421875 C 245.632812 109.5 245.96875 109.652344 246.460938 109.878906 C 248.183594 110.675781 251.800781 112.351562 255.890625 114.441406 C 259.980469 116.53125 264.546875 119.035156 268.140625 121.464844 L 268.492188 120.9375 " fill-opacity="1" fill-rule="nonzero"/></g><path fill="#ffffff" d="M 171.25 91.503906 C 170.042969 96.539062 166.589844 100.023438 163.324219 99.238281 C 160.15625 98.476562 158.761719 93.824219 159.972656 88.785156 L 165.226562 51.1875 C 166.433594 46.15625 171.488281 43.054688 176.515625 44.265625 C 181.542969 45.476562 184.640625 50.539062 183.433594 55.574219 L 171.25 91.503906 " fill-opacity="1" fill-rule="nonzero"/><g clip-path="url(#id3)"><path fill="#f7941d" d="M 171.25 91.503906 L 170.636719 91.351562 C 170.113281 93.539062 169.144531 95.414062 167.984375 96.710938 C 167.40625 97.363281 166.78125 97.867188 166.148438 98.207031 C 165.519531 98.542969 164.878906 98.714844 164.257812 98.714844 C 163.996094 98.714844 163.734375 98.683594 163.472656 98.621094 C 162.972656 98.5 162.53125 98.269531 162.132812 97.925781 C 161.535156 97.417969 161.042969 96.652344 160.699219 95.691406 C 160.359375 94.730469 160.171875 93.578125 160.171875 92.316406 C 160.171875 91.246094 160.304688 90.101562 160.585938 88.933594 L 160.597656 88.875 L 165.851562 51.277344 L 165.226562 51.1875 L 165.839844 51.339844 C 166.800781 47.332031 170.378906 44.636719 174.320312 44.636719 C 174.996094 44.636719 175.679688 44.714844 176.367188 44.882812 C 180.371094 45.84375 183.058594 49.429688 183.058594 53.375 C 183.058594 54.050781 182.980469 54.738281 182.816406 55.425781 L 183.433594 55.574219 L 182.832031 55.371094 L 170.652344 91.296875 L 170.636719 91.351562 L 171.25 91.503906 L 171.851562 91.707031 L 184.03125 55.777344 L 184.046875 55.722656 C 184.238281 54.9375 184.328125 54.152344 184.328125 53.375 C 184.328125 48.851562 181.246094 44.753906 176.664062 43.648438 C 175.878906 43.457031 175.09375 43.367188 174.320312 43.367188 C 169.804688 43.367188 165.710938 46.453125 164.609375 51.039062 L 164.597656 51.101562 L 159.34375 88.699219 L 159.972656 88.785156 L 159.355469 88.636719 C 159.050781 89.902344 158.90625 91.144531 158.90625 92.316406 C 158.90625 94.160156 159.265625 95.84375 159.972656 97.179688 C 160.328125 97.847656 160.769531 98.429688 161.308594 98.890625 C 161.84375 99.351562 162.476562 99.6875 163.175781 99.855469 C 163.535156 99.941406 163.894531 99.984375 164.257812 99.984375 C 165.117188 99.984375 165.960938 99.742188 166.746094 99.324219 C 167.925781 98.691406 168.988281 97.65625 169.867188 96.339844 C 170.746094 95.023438 171.441406 93.425781 171.867188 91.648438 L 171.25 91.503906 L 171.851562 91.707031 L 171.25 91.503906 " fill-opacity="1" fill-rule="nonzero"/></g><path fill="#ffffff" d="M 170.75 84.019531 C 169.996094 87.148438 167.851562 89.316406 165.824219 88.828125 C 163.855469 88.355469 162.988281 85.464844 163.742188 82.335938 L 167.003906 58.980469 C 167.753906 55.851562 170.894531 53.921875 174.015625 54.675781 C 177.140625 55.425781 179.0625 58.574219 178.3125 61.703125 L 170.75 84.019531 " fill-opacity="1" fill-rule="nonzero"/><path fill="#f7941d" d="M 170.75 84.019531 L 170.132812 83.871094 C 169.816406 85.195312 169.226562 86.328125 168.539062 87.097656 C 168.195312 87.484375 167.828125 87.777344 167.464844 87.972656 C 167.101562 88.167969 166.746094 88.261719 166.402344 88.261719 C 166.257812 88.261719 166.113281 88.246094 165.972656 88.210938 C 165.699219 88.144531 165.460938 88.019531 165.238281 87.828125 C 164.90625 87.546875 164.621094 87.109375 164.417969 86.542969 C 164.21875 85.976562 164.105469 85.289062 164.105469 84.527344 C 164.105469 83.882812 164.183594 83.191406 164.355469 82.484375 L 164.367188 82.421875 L 167.628906 59.066406 L 167.003906 58.980469 L 167.621094 59.128906 C 168.191406 56.746094 170.316406 55.148438 172.652344 55.148438 C 173.054688 55.148438 173.460938 55.195312 173.867188 55.292969 C 176.246094 55.863281 177.839844 57.992188 177.839844 60.335938 C 177.839844 60.738281 177.796875 61.144531 177.699219 61.554688 L 178.3125 61.703125 L 177.714844 61.5 L 170.148438 83.816406 L 170.132812 83.871094 L 170.75 84.019531 L 171.347656 84.222656 L 178.914062 61.90625 L 178.929688 61.851562 C 179.050781 61.34375 179.109375 60.835938 179.109375 60.335938 C 179.109375 57.417969 177.125 54.773438 174.164062 54.058594 C 173.660156 53.9375 173.152344 53.878906 172.652344 53.878906 C 169.738281 53.878906 167.097656 55.867188 166.386719 58.832031 L 166.375 58.890625 L 163.113281 82.246094 L 163.742188 82.335938 L 163.125 82.183594 C 162.933594 82.988281 162.839844 83.777344 162.839844 84.527344 C 162.839844 85.707031 163.066406 86.785156 163.53125 87.660156 C 163.761719 88.097656 164.054688 88.484375 164.414062 88.792969 C 164.773438 89.101562 165.203125 89.332031 165.675781 89.445312 C 165.917969 89.5 166.160156 89.53125 166.402344 89.53125 C 166.980469 89.53125 167.542969 89.367188 168.0625 89.09375 C 168.839844 88.675781 169.523438 88.003906 170.085938 87.160156 C 170.652344 86.316406 171.09375 85.300781 171.363281 84.167969 L 170.75 84.019531 L 171.347656 84.222656 L 170.75 84.019531 " fill-opacity="1" fill-rule="nonzero"/><path fill="#ffffff" d="M 134.777344 91.503906 C 135.984375 96.539062 139.4375 100.023438 142.703125 99.238281 C 145.867188 98.476562 147.265625 93.824219 146.054688 88.785156 L 140.804688 51.1875 C 139.597656 46.15625 134.539062 43.054688 129.511719 44.265625 C 124.484375 45.476562 121.386719 50.539062 122.59375 55.574219 L 134.777344 91.503906 " fill-opacity="1" fill-rule="nonzero"/><g clip-path="url(#id4)"><path fill="#f7941d" d="M 134.777344 91.503906 L 134.160156 91.648438 C 134.730469 94.019531 135.773438 96.070312 137.097656 97.558594 C 137.757812 98.300781 138.492188 98.902344 139.28125 99.324219 C 140.066406 99.742188 140.910156 99.984375 141.769531 99.984375 C 142.128906 99.984375 142.492188 99.941406 142.851562 99.855469 C 143.550781 99.6875 144.183594 99.351562 144.71875 98.890625 C 145.523438 98.199219 146.121094 97.238281 146.519531 96.117188 C 146.917969 94.992188 147.121094 93.703125 147.121094 92.316406 C 147.121094 91.144531 146.972656 89.902344 146.671875 88.636719 L 146.054688 88.785156 L 146.683594 88.699219 L 141.429688 51.101562 L 141.421875 51.039062 C 140.316406 46.453125 136.226562 43.367188 131.707031 43.367188 C 130.933594 43.367188 130.148438 43.457031 129.363281 43.648438 C 124.78125 44.753906 121.703125 48.851562 121.703125 53.375 C 121.703125 54.152344 121.789062 54.9375 121.980469 55.722656 L 121.996094 55.777344 L 134.175781 91.707031 L 134.777344 91.503906 L 134.160156 91.648438 L 134.777344 91.503906 L 135.375 91.296875 L 123.195312 55.371094 L 122.59375 55.574219 L 123.210938 55.425781 C 123.046875 54.738281 122.96875 54.050781 122.96875 53.375 C 122.96875 49.429688 125.660156 45.84375 129.660156 44.882812 C 130.347656 44.714844 131.035156 44.636719 131.707031 44.636719 C 135.648438 44.636719 139.226562 47.332031 140.1875 51.339844 L 140.804688 51.1875 L 140.175781 51.277344 L 145.429688 88.875 L 145.441406 88.933594 C 145.722656 90.101562 145.855469 91.25 145.855469 92.316406 C 145.855469 93.996094 145.519531 95.488281 144.9375 96.585938 C 144.644531 97.136719 144.292969 97.585938 143.894531 97.925781 C 143.496094 98.269531 143.054688 98.5 142.554688 98.621094 C 142.292969 98.683594 142.03125 98.714844 141.769531 98.714844 C 141.144531 98.714844 140.507812 98.542969 139.878906 98.207031 C 138.929688 97.699219 138 96.8125 137.214844 95.632812 C 136.425781 94.460938 135.785156 92.992188 135.390625 91.351562 L 135.375 91.296875 L 134.777344 91.503906 " fill-opacity="1" fill-rule="nonzero"/></g><path fill="#ffffff" d="M 135.28125 84.019531 C 136.03125 87.148438 138.175781 89.316406 140.203125 88.828125 C 142.171875 88.355469 143.039062 85.464844 142.289062 82.335938 L 139.027344 58.980469 C 138.273438 55.851562 135.132812 53.921875 132.011719 54.675781 C 128.886719 55.425781 126.964844 58.574219 127.714844 61.703125 L 135.28125 84.019531 " fill-opacity="1" fill-rule="nonzero"/><path fill="#f7941d" d="M 135.28125 84.019531 L 134.664062 84.167969 C 135.027344 85.675781 135.691406 86.984375 136.542969 87.941406 C 136.96875 88.421875 137.445312 88.8125 137.964844 89.089844 C 138.484375 89.367188 139.046875 89.53125 139.625 89.53125 C 139.867188 89.53125 140.109375 89.5 140.351562 89.445312 C 140.828125 89.332031 141.253906 89.101562 141.613281 88.792969 C 142.152344 88.328125 142.542969 87.695312 142.800781 86.96875 C 143.0625 86.238281 143.1875 85.414062 143.1875 84.527344 C 143.1875 83.777344 143.09375 82.988281 142.902344 82.1875 L 142.289062 82.335938 L 142.914062 82.246094 L 139.652344 58.890625 L 139.640625 58.832031 C 138.929688 55.867188 136.289062 53.878906 133.375 53.878906 C 132.875 53.878906 132.367188 53.9375 131.863281 54.058594 C 128.90625 54.773438 126.917969 57.417969 126.917969 60.335938 C 126.917969 60.835938 126.976562 61.34375 127.097656 61.851562 L 127.113281 61.90625 L 134.679688 84.222656 L 135.28125 84.019531 L 134.664062 84.167969 L 135.28125 84.019531 L 135.882812 83.816406 L 128.3125 61.5 L 127.714844 61.703125 L 128.332031 61.554688 C 128.234375 61.144531 128.183594 60.738281 128.183594 60.335938 C 128.183594 57.992188 129.78125 55.863281 132.160156 55.292969 C 132.566406 55.195312 132.972656 55.148438 133.375 55.148438 C 135.710938 55.148438 137.839844 56.746094 138.410156 59.128906 L 139.027344 58.980469 L 138.398438 59.066406 L 141.660156 82.421875 L 141.671875 82.484375 C 141.839844 83.191406 141.921875 83.886719 141.921875 84.527344 C 141.921875 85.542969 141.71875 86.429688 141.378906 87.066406 C 141.210938 87.386719 141.011719 87.640625 140.789062 87.828125 C 140.566406 88.019531 140.328125 88.144531 140.054688 88.210938 C 139.910156 88.246094 139.769531 88.261719 139.625 88.261719 C 139.28125 88.261719 138.925781 88.167969 138.5625 87.972656 C 138.015625 87.683594 137.460938 87.160156 136.992188 86.453125 C 136.523438 85.75 136.132812 84.867188 135.894531 83.871094 L 135.882812 83.816406 L 135.28125 84.019531 " fill-opacity="1" fill-rule="nonzero"/><path fill="#ffffff" d="M 179.964844 110.53125 C 179.964844 123.476562 167.765625 133.972656 152.71875 133.972656 C 137.671875 133.972656 125.472656 123.476562 125.472656 110.53125 C 125.472656 97.578125 137.671875 79.089844 152.71875 79.089844 C 167.765625 79.089844 179.964844 97.578125 179.964844 110.53125 " fill-opacity="1" fill-rule="nonzero"/><path fill="#f7941d" d="M 179.964844 110.53125 L 179.332031 110.53125 C 179.332031 116.800781 176.382812 122.484375 171.574219 126.625 C 166.761719 130.765625 160.097656 133.339844 152.71875 133.339844 C 145.339844 133.339844 138.675781 130.765625 133.863281 126.625 C 129.054688 122.484375 126.105469 116.800781 126.105469 110.53125 C 126.105469 107.390625 126.847656 103.875 128.203125 100.382812 C 130.234375 95.140625 133.644531 89.949219 137.910156 86.09375 C 142.175781 82.234375 147.277344 79.722656 152.71875 79.722656 C 156.351562 79.722656 159.820312 80.839844 163 82.726562 C 167.773438 85.554688 171.871094 90.136719 174.761719 95.203125 C 177.65625 100.269531 179.335938 105.820312 179.332031 110.53125 L 180.597656 110.53125 C 180.597656 107.191406 179.816406 103.539062 178.414062 99.925781 C 176.3125 94.5 172.808594 89.164062 168.378906 85.152344 C 163.945312 81.144531 158.5625 78.457031 152.71875 78.457031 C 148.828125 78.457031 145.128906 79.652344 141.789062 81.636719 C 136.78125 84.613281 132.558594 89.347656 129.574219 94.574219 C 126.59375 99.804688 124.839844 105.523438 124.839844 110.53125 C 124.835938 117.207031 127.988281 123.246094 133.039062 127.589844 C 138.089844 131.933594 145.046875 134.609375 152.71875 134.609375 C 160.390625 134.609375 167.347656 131.933594 172.398438 127.589844 C 177.449219 123.246094 180.597656 117.207031 180.597656 110.53125 L 179.964844 110.53125 " fill-opacity="1" fill-rule="nonzero"/><path fill="#ffffff" d="M 155.140625 113.550781 C 154.09375 113.132812 153.097656 113.074219 151.9375 113.082031 C 150.777344 113.074219 149.78125 113.132812 148.734375 113.550781 C 147.4375 114.066406 147.613281 116.28125 149.597656 117.894531 C 150.40625 118.546875 151.363281 118.980469 151.933594 119.027344 L 151.941406 119.027344 C 152.511719 118.980469 153.472656 118.546875 154.277344 117.894531 C 156.265625 116.28125 156.4375 114.066406 155.140625 113.550781 " fill-opacity="1" fill-rule="nonzero"/><path fill="#f7941d" d="M 155.140625 113.550781 L 155.375 112.957031 C 154.300781 112.527344 153.265625 112.449219 152.179688 112.449219 C 152.097656 112.449219 152.015625 112.449219 151.929688 112.449219 L 151.9375 113.082031 L 151.945312 112.449219 C 151.863281 112.449219 151.777344 112.449219 151.695312 112.449219 C 150.609375 112.449219 149.578125 112.527344 148.5 112.957031 C 148.101562 113.117188 147.777344 113.40625 147.570312 113.757812 C 147.363281 114.109375 147.269531 114.515625 147.269531 114.933594 C 147.273438 115.507812 147.441406 116.109375 147.765625 116.699219 C 148.085938 117.292969 148.566406 117.871094 149.203125 118.386719 C 149.644531 118.746094 150.125 119.042969 150.582031 119.261719 C 151.046875 119.476562 151.472656 119.625 151.886719 119.65625 L 151.933594 119.027344 L 151.300781 119.027344 C 151.300781 119.234375 151.402344 119.429688 151.574219 119.546875 C 151.746094 119.667969 151.964844 119.695312 152.160156 119.621094 L 151.9375 119.027344 L 151.820312 119.648438 L 151.824219 119.648438 C 152.007812 119.6875 152.203125 119.636719 152.34375 119.515625 C 152.492188 119.394531 152.574219 119.214844 152.574219 119.027344 L 151.941406 119.027344 L 151.988281 119.65625 C 152.402344 119.625 152.832031 119.476562 153.292969 119.261719 C 153.753906 119.042969 154.230469 118.746094 154.675781 118.386719 C 155.3125 117.871094 155.789062 117.292969 156.113281 116.699219 C 156.433594 116.109375 156.601562 115.507812 156.605469 114.933594 C 156.605469 114.515625 156.511719 114.109375 156.304688 113.757812 C 156.101562 113.40625 155.777344 113.117188 155.375 112.957031 L 155.140625 113.550781 L 154.902344 114.136719 C 155.050781 114.199219 155.136719 114.277344 155.214844 114.402344 C 155.285156 114.523438 155.335938 114.703125 155.335938 114.933594 C 155.339844 115.25 155.238281 115.660156 155 116.09375 C 154.765625 116.527344 154.394531 116.980469 153.878906 117.398438 C 153.519531 117.691406 153.117188 117.941406 152.75 118.113281 C 152.390625 118.289062 152.050781 118.382812 151.894531 118.394531 C 151.5625 118.417969 151.308594 118.695312 151.308594 119.027344 L 151.941406 119.027344 L 152.058594 118.402344 L 152.054688 118.402344 C 151.941406 118.382812 151.820312 118.390625 151.714844 118.429688 L 151.710938 118.433594 L 151.933594 119.027344 L 152.570312 119.027344 C 152.570312 118.695312 152.3125 118.417969 151.984375 118.394531 C 151.824219 118.382812 151.488281 118.289062 151.125 118.113281 C 150.761719 117.941406 150.359375 117.691406 150 117.398438 C 149.480469 116.980469 149.113281 116.523438 148.875 116.09375 C 148.640625 115.660156 148.539062 115.25 148.539062 114.933594 C 148.539062 114.703125 148.589844 114.523438 148.660156 114.402344 C 148.738281 114.277344 148.824219 114.199219 148.972656 114.136719 C 149.835938 113.792969 150.664062 113.71875 151.695312 113.714844 C 151.773438 113.714844 151.851562 113.71875 151.929688 113.71875 L 151.945312 113.71875 C 152.023438 113.71875 152.101562 113.714844 152.179688 113.714844 C 153.210938 113.71875 154.039062 113.792969 154.90625 114.136719 L 155.140625 113.550781 " fill-opacity="1" fill-rule="nonzero"/><path fill="#f7941d" d="M 166.40625 103.824219 C 166.226562 103.644531 165.933594 103.640625 165.753906 103.824219 L 164.914062 104.664062 C 164.707031 104.535156 164.480469 104.433594 164.238281 104.378906 L 164.238281 103.246094 C 164.238281 102.988281 164.027344 102.78125 163.773438 102.78125 C 163.519531 102.78125 163.308594 102.988281 163.308594 103.246094 L 163.308594 104.378906 C 163.09375 104.429688 162.894531 104.515625 162.707031 104.625 L 161.90625 103.824219 C 161.726562 103.640625 161.433594 103.644531 161.253906 103.824219 C 161.070312 104.003906 161.070312 104.296875 161.253906 104.480469 L 162.019531 105.25 C 161.785156 105.59375 161.640625 106.007812 161.640625 106.460938 C 161.640625 107.640625 162.597656 108.59375 163.773438 108.59375 C 164.949219 108.59375 165.90625 107.640625 165.90625 106.460938 C 165.90625 106.039062 165.777344 105.648438 165.570312 105.320312 L 166.40625 104.480469 C 166.585938 104.296875 166.585938 104.003906 166.40625 103.824219 " fill-opacity="1" fill-rule="nonzero"/><path fill="#f7941d" d="M 143.496094 103.824219 C 143.316406 103.644531 143.023438 103.640625 142.839844 103.824219 L 142.003906 104.664062 C 141.796875 104.535156 141.570312 104.433594 141.324219 104.378906 L 141.324219 103.246094 C 141.324219 102.988281 141.121094 102.78125 140.863281 102.78125 C 140.609375 102.78125 140.402344 102.988281 140.402344 103.246094 L 140.402344 104.378906 C 140.183594 104.429688 139.980469 104.515625 139.792969 104.625 L 138.996094 103.824219 C 138.816406 103.640625 138.523438 103.644531 138.339844 103.824219 C 138.160156 104.003906 138.160156 104.296875 138.339844 104.480469 L 139.109375 105.25 C 138.871094 105.59375 138.730469 106.011719 138.730469 106.460938 C 138.730469 107.640625 139.6875 108.59375 140.863281 108.59375 C 142.039062 108.59375 142.996094 107.640625 142.996094 106.460938 C 142.996094 106.039062 142.871094 105.648438 142.65625 105.320312 L 143.496094 104.480469 C 143.675781 104.296875 143.675781 104.003906 143.496094 103.824219 " fill-opacity="1" fill-rule="nonzero"/><path fill="#ffffff" d="M 235.171875 127.683594 C 235.601562 126.261719 234.84375 124.773438 233.476562 124.269531 C 233.75 124.066406 233.976562 123.800781 234.082031 123.453125 C 234.34375 122.585938 233.855469 121.664062 232.988281 121.398438 L 232.960938 121.394531 C 233.160156 121.15625 233.316406 120.875 233.414062 120.558594 C 233.792969 119.304688 233.085938 117.976562 231.832031 117.59375 C 231.109375 117.375 230.367188 117.523438 229.789062 117.929688 C 229.535156 117.214844 228.972656 116.628906 228.199219 116.394531 C 226.898438 116 225.515625 116.734375 225.125 118.035156 C 225.070312 118.210938 225.039062 118.382812 225.027344 118.550781 C 222.546875 118.84375 220.351562 120.558594 219.578125 123.101562 C 218.816406 125.617188 219.664062 128.230469 221.519531 129.855469 L 221.476562 129.964844 C 221.160156 131 221.746094 132.101562 222.78125 132.417969 C 223.121094 132.519531 223.464844 132.515625 223.785156 132.445312 C 223.984375 133.25 224.578125 133.9375 225.433594 134.199219 C 226.714844 134.585938 228.066406 133.863281 228.457031 132.582031 C 228.566406 132.226562 228.582031 131.867188 228.53125 131.523438 C 228.761719 131.78125 229.054688 131.988281 229.410156 132.09375 C 230.449219 132.410156 231.542969 131.820312 231.855469 130.78125 C 231.984375 130.363281 231.960938 129.9375 231.824219 129.554688 C 233.257812 129.925781 234.738281 129.109375 235.171875 127.683594 " fill-opacity="1" fill-rule="nonzero"/><path fill="#f7941d" d="M 235.171875 127.683594 L 235.777344 127.867188 C 235.878906 127.535156 235.925781 127.199219 235.925781 126.875 C 235.925781 125.46875 235.058594 124.179688 233.695312 123.671875 L 233.476562 124.269531 L 233.851562 124.78125 C 234.203125 124.523438 234.535156 124.144531 234.6875 123.636719 C 234.753906 123.417969 234.785156 123.195312 234.785156 122.972656 C 234.785156 121.996094 234.152344 121.09375 233.171875 120.792969 L 233.101562 120.777344 L 233.074219 120.769531 L 232.960938 121.394531 L 233.445312 121.800781 C 233.695312 121.5 233.898438 121.144531 234.019531 120.746094 C 234.105469 120.453125 234.148438 120.15625 234.148438 119.867188 C 234.148438 118.574219 233.3125 117.382812 232.015625 116.988281 C 231.730469 116.898438 231.441406 116.859375 231.15625 116.859375 C 230.523438 116.859375 229.925781 117.058594 229.425781 117.410156 L 229.789062 117.929688 L 230.386719 117.71875 C 230.074219 116.828125 229.359375 116.082031 228.382812 115.785156 C 228.082031 115.695312 227.777344 115.652344 227.480469 115.652344 C 226.148438 115.652344 224.921875 116.511719 224.515625 117.851562 L 224.515625 117.847656 C 224.449219 118.074219 224.414062 118.292969 224.394531 118.503906 L 225.027344 118.550781 L 224.953125 117.921875 C 222.234375 118.238281 219.824219 120.121094 218.972656 122.914062 C 218.765625 123.601562 218.667969 124.296875 218.667969 124.976562 C 218.667969 127.042969 219.574219 128.992188 221.105469 130.332031 L 221.519531 129.855469 L 220.9375 129.613281 L 220.890625 129.722656 L 220.871094 129.78125 C 220.792969 130.03125 220.757812 130.285156 220.757812 130.535156 C 220.757812 131.652344 221.476562 132.679688 222.597656 133.027344 L 222.601562 133.027344 C 222.84375 133.097656 223.089844 133.132812 223.324219 133.132812 C 223.53125 133.132812 223.730469 133.105469 223.921875 133.066406 L 223.785156 132.445312 L 223.171875 132.597656 C 223.417969 133.605469 224.171875 134.476562 225.246094 134.804688 L 225.25 134.808594 C 225.542969 134.894531 225.84375 134.9375 226.136719 134.9375 C 227.449219 134.941406 228.660156 134.085938 229.0625 132.765625 C 229.152344 132.472656 229.191406 132.179688 229.191406 131.894531 C 229.191406 131.738281 229.179688 131.582031 229.160156 131.433594 L 228.53125 131.523438 L 228.0625 131.945312 C 228.355469 132.28125 228.75 132.554688 229.230469 132.699219 L 229.226562 132.699219 C 229.476562 132.777344 229.730469 132.8125 229.984375 132.8125 C 231.097656 132.8125 232.121094 132.085938 232.464844 130.964844 C 232.539062 130.71875 232.574219 130.46875 232.574219 130.222656 C 232.574219 129.917969 232.519531 129.617188 232.417969 129.34375 L 231.824219 129.554688 L 231.667969 130.171875 C 231.949219 130.246094 232.238281 130.277344 232.519531 130.277344 C 233.980469 130.28125 235.332031 129.339844 235.777344 127.867188 L 235.171875 127.683594 L 234.566406 127.496094 C 234.285156 128.421875 233.441406 129.007812 232.519531 129.011719 C 232.34375 129.011719 232.160156 128.988281 231.980469 128.941406 C 231.753906 128.882812 231.511719 128.957031 231.355469 129.128906 C 231.199219 129.300781 231.148438 129.550781 231.226562 129.773438 C 231.277344 129.914062 231.308594 130.070312 231.308594 130.222656 C 231.308594 130.347656 231.289062 130.472656 231.253906 130.597656 C 231.078125 131.175781 230.546875 131.542969 229.984375 131.542969 C 229.855469 131.542969 229.726562 131.523438 229.597656 131.484375 L 229.59375 131.484375 C 229.359375 131.414062 229.167969 131.28125 229.003906 131.101562 C 228.816406 130.890625 228.515625 130.828125 228.261719 130.949219 C 228.007812 131.070312 227.863281 131.339844 227.90625 131.617188 C 227.917969 131.710938 227.925781 131.804688 227.925781 131.894531 C 227.925781 132.0625 227.902344 132.230469 227.851562 132.398438 C 227.617188 133.167969 226.902344 133.667969 226.136719 133.667969 C 225.964844 133.667969 225.789062 133.644531 225.613281 133.589844 L 225.617188 133.589844 C 224.988281 133.398438 224.550781 132.898438 224.402344 132.292969 C 224.320312 131.957031 223.984375 131.75 223.648438 131.824219 C 223.539062 131.851562 223.433594 131.863281 223.324219 131.863281 C 223.203125 131.863281 223.082031 131.847656 222.964844 131.808594 L 222.96875 131.8125 C 222.394531 131.636719 222.023438 131.105469 222.023438 130.535156 C 222.023438 130.410156 222.042969 130.277344 222.082031 130.148438 L 221.476562 129.964844 L 222.0625 130.210938 L 222.105469 130.097656 C 222.210938 129.847656 222.140625 129.558594 221.9375 129.378906 C 220.679688 128.277344 219.933594 126.667969 219.933594 124.976562 C 219.933594 124.417969 220.011719 123.851562 220.1875 123.285156 C 220.882812 120.992188 222.863281 119.445312 225.101562 119.183594 C 225.402344 119.148438 225.632812 118.90625 225.660156 118.601562 C 225.671875 118.46875 225.691406 118.34375 225.730469 118.222656 L 225.730469 118.21875 C 225.964844 117.433594 226.695312 116.921875 227.480469 116.921875 C 227.65625 116.921875 227.835938 116.945312 228.011719 117.003906 C 228.585938 117.175781 229 117.605469 229.191406 118.140625 C 229.257812 118.328125 229.40625 118.472656 229.597656 118.535156 C 229.785156 118.59375 229.988281 118.5625 230.152344 118.449219 C 230.449219 118.242188 230.796875 118.125 231.15625 118.125 C 231.316406 118.125 231.480469 118.152344 231.648438 118.199219 C 232.398438 118.425781 232.882812 119.121094 232.882812 119.867188 C 232.882812 120.035156 232.859375 120.203125 232.808594 120.375 C 232.734375 120.605469 232.621094 120.8125 232.472656 120.988281 C 232.328125 121.164062 232.289062 121.398438 232.363281 121.609375 C 232.441406 121.820312 232.625 121.980469 232.847656 122.019531 L 232.871094 122.023438 L 232.988281 121.398438 L 232.804688 122.007812 C 233.238281 122.140625 233.519531 122.539062 233.519531 122.972656 C 233.519531 123.070312 233.503906 123.167969 233.476562 123.269531 C 233.417969 123.457031 233.296875 123.613281 233.101562 123.757812 C 232.914062 123.894531 232.816406 124.128906 232.847656 124.359375 C 232.882812 124.589844 233.039062 124.785156 233.257812 124.863281 C 234.113281 125.179688 234.660156 125.996094 234.660156 126.875 C 234.660156 127.078125 234.628906 127.289062 234.566406 127.496094 L 235.171875 127.683594 " fill-opacity="1" fill-rule="nonzero"/><g fill="#ffffff" fill-opacity="1"><g transform="translate(51.386833, 257.902604)"><g><path d="M 13.953125 -3.65625 C 12.285156 -2.582031 10.628906 -1.953125 8.984375 -1.765625 C 7.347656 -1.585938 5.671875 -2.140625 3.953125 -3.421875 C 1.609375 -5.242188 -1.492188 -9.144531 -5.359375 -15.125 C -7.484375 -18.414062 -9.332031 -21.582031 -10.90625 -24.625 C -12.488281 -27.664062 -13.421875 -29.9375 -13.703125 -31.4375 C -14.035156 -33.164062 -13.925781 -34.648438 -13.375 -35.890625 C -12.832031 -37.128906 -11.726562 -38.285156 -10.0625 -39.359375 C -7.539062 -40.984375 -5.234375 -41.269531 -3.140625 -40.21875 C -1.046875 -39.175781 1.210938 -37.015625 3.640625 -33.734375 C 4.265625 -34.128906 4.722656 -34.398438 5.015625 -34.546875 C 8.117188 -36.492188 9.859375 -37.546875 10.234375 -37.703125 C 8.722656 -40.046875 7.691406 -42.039062 7.140625 -43.6875 C 6.585938 -45.34375 6.5625 -46.867188 7.0625 -48.265625 C 7.5625 -49.671875 8.707031 -50.976562 10.5 -52.1875 C 13.539062 -54.15625 16.460938 -54.035156 19.265625 -51.828125 C 21.566406 -49.941406 24.648438 -46.003906 28.515625 -40.015625 C 30.410156 -37.085938 32.1875 -34.148438 33.84375 -31.203125 C 35.5 -28.253906 36.625 -26.066406 37.21875 -24.640625 C 37.9375 -22.742188 38 -21.210938 37.40625 -20.046875 C 36.8125 -18.878906 35.65625 -17.738281 33.9375 -16.625 C 31.539062 -15.082031 29.1875 -14.847656 26.875 -15.921875 C 24.5625 -17.003906 22.410156 -19.007812 20.421875 -21.9375 C 19.242188 -21.03125 18.3125 -20.351562 17.625 -19.90625 C 16.207031 -18.988281 14.929688 -18.285156 13.796875 -17.796875 C 15.191406 -15.316406 16.175781 -13.304688 16.75 -11.765625 C 17.332031 -10.222656 17.441406 -8.765625 17.078125 -7.390625 C 16.710938 -6.015625 15.671875 -4.769531 13.953125 -3.65625 Z M 13.953125 -3.65625 "/></g></g></g><g fill="#ffffff" fill-opacity="1"><g transform="translate(88.636974, 233.370611)"><g><path d="M 24.109375 -3.734375 C 17.921875 -1.347656 12.375 -0.929688 7.46875 -2.484375 C 2.570312 -4.035156 -1.175781 -8.171875 -3.78125 -14.890625 C -6.320312 -21.492188 -6.816406 -27.53125 -5.265625 -33 C -3.722656 -38.46875 0.695312 -42.609375 8 -45.421875 C 12.820312 -47.285156 17.175781 -47.691406 21.0625 -46.640625 C 24.957031 -45.585938 28.25 -43.550781 30.9375 -40.53125 C 33.632812 -37.507812 35.796875 -33.90625 37.421875 -29.71875 C 39.867188 -23.351562 39.796875 -18.023438 37.203125 -13.734375 C 34.609375 -9.441406 30.242188 -6.109375 24.109375 -3.734375 Z M 19.109375 -16.5 C 20.679688 -17.101562 22 -18.25 23.0625 -19.9375 C 24.125 -21.632812 24.585938 -23.515625 24.453125 -25.578125 C 24.429688 -26.679688 24.273438 -27.613281 23.984375 -28.375 C 23.492188 -29.644531 22.765625 -30.578125 21.796875 -31.171875 C 20.835938 -31.773438 19.6875 -31.925781 18.34375 -31.625 C 18.332031 -31.65625 18.046875 -31.539062 17.484375 -31.28125 C 16.921875 -31.019531 16.382812 -30.601562 15.875 -30.03125 C 15.375 -29.46875 15.039062 -28.71875 14.875 -27.78125 C 14.28125 -28.414062 13.625 -28.78125 12.90625 -28.875 C 12.1875 -28.976562 11.515625 -28.941406 10.890625 -28.765625 C 10.265625 -28.597656 9.960938 -28.492188 9.984375 -28.453125 C 8.578125 -27.742188 7.679688 -26.796875 7.296875 -25.609375 C 6.921875 -24.429688 6.976562 -23.210938 7.46875 -21.953125 C 7.75 -21.222656 8.25 -20.488281 8.96875 -19.75 C 10.476562 -18.113281 12.195312 -17.03125 14.125 -16.5 C 16.0625 -15.96875 17.722656 -15.96875 19.109375 -16.5 Z M 19.109375 -16.5 "/></g></g></g><g fill="#ffffff" fill-opacity="1"><g transform="translate(128.448162, 217.566358)"><g><path d="M 15.140625 2.859375 C 10.304688 3.679688 7.117188 2.390625 5.578125 -1.015625 C 4.898438 -2.578125 3.953125 -5.566406 2.734375 -9.984375 C 1.515625 -14.410156 0.570312 -18.570312 -0.09375 -22.46875 C -0.832031 -26.769531 -1.046875 -29.96875 -0.734375 -32.0625 C -0.160156 -35.039062 0.78125 -37.25 2.09375 -38.6875 C 3.414062 -40.125 5.425781 -41.257812 8.125 -42.09375 C 9.820312 -42.675781 11.820312 -43.164062 14.125 -43.5625 C 16.882812 -44.039062 19.546875 -44.28125 22.109375 -44.28125 C 24.679688 -44.28125 26.804688 -44.003906 28.484375 -43.453125 C 31.765625 -42.347656 34.359375 -40.625 36.265625 -38.28125 C 38.171875 -35.945312 39.441406 -32.929688 40.078125 -29.234375 C 40.804688 -24.929688 40.765625 -21.363281 39.953125 -18.53125 C 39.148438 -15.695312 37.398438 -13.15625 34.703125 -10.90625 C 34.710938 -10.863281 34.253906 -10.5625 33.328125 -10 C 32.398438 -9.445312 31.148438 -8.867188 29.578125 -8.265625 C 28.003906 -7.671875 26.164062 -7.191406 24.0625 -6.828125 C 22.5625 -6.578125 21.378906 -6.410156 20.515625 -6.328125 C 20.867188 -3.546875 20.6875 -1.429688 19.96875 0.015625 C 19.257812 1.472656 17.648438 2.421875 15.140625 2.859375 Z M 21.203125 -17.734375 C 22.410156 -17.941406 23.582031 -18.515625 24.71875 -19.453125 C 25.851562 -20.398438 26.648438 -21.578125 27.109375 -22.984375 C 27.484375 -24.015625 27.570312 -25.097656 27.375 -26.234375 C 27.226562 -27.085938 26.890625 -27.789062 26.359375 -28.34375 C 25.828125 -28.894531 25.109375 -29.242188 24.203125 -29.390625 C 24.148438 -29.421875 24.003906 -29.445312 23.765625 -29.46875 C 23.535156 -29.5 23.265625 -29.488281 22.953125 -29.4375 C 21.847656 -29.25 20.988281 -28.617188 20.375 -27.546875 C 20.09375 -28.203125 19.695312 -28.671875 19.1875 -28.953125 C 18.6875 -29.242188 18.203125 -29.414062 17.734375 -29.46875 C 17.265625 -29.519531 16.96875 -29.535156 16.84375 -29.515625 C 15.40625 -29.390625 14.351562 -28.820312 13.6875 -27.8125 C 13.03125 -26.800781 12.8125 -25.644531 13.03125 -24.34375 C 13.070312 -24.101562 13.1875 -23.703125 13.375 -23.140625 C 14.125 -21.234375 15.269531 -19.796875 16.8125 -18.828125 C 18.351562 -17.859375 19.816406 -17.492188 21.203125 -17.734375 Z M 21.203125 -17.734375 "/></g></g></g><g fill="#ffffff" fill-opacity="1"><g transform="translate(169.498427, 210.077713)"><g><path d="M 20.984375 5.546875 C 17.773438 5.460938 14.914062 5.222656 12.40625 4.828125 C 9.90625 4.429688 8.148438 3.851562 7.140625 3.09375 C 6.335938 2.488281 5.722656 1.5625 5.296875 0.3125 C 4.878906 -0.925781 4.578125 -2.554688 4.390625 -4.578125 C 4.097656 -8.003906 4.03125 -12.640625 4.1875 -18.484375 C 4.332031 -24.109375 4.617188 -27.984375 5.046875 -30.109375 C 5.328125 -31.910156 5.769531 -33.375 6.375 -34.5 C 6.988281 -35.625 7.796875 -36.394531 8.796875 -36.8125 C 10.128906 -37.4375 12.347656 -37.878906 15.453125 -38.140625 C 18.566406 -38.410156 21.953125 -38.5 25.609375 -38.40625 C 28.453125 -38.332031 31.09375 -38.160156 33.53125 -37.890625 C 35.976562 -37.628906 37.773438 -37.316406 38.921875 -36.953125 C 40.335938 -36.472656 41.414062 -35.757812 42.15625 -34.8125 C 42.90625 -33.863281 43.253906 -32.503906 43.203125 -30.734375 C 43.160156 -28.878906 42.78125 -27.375 42.0625 -26.21875 C 41.351562 -25.070312 40.335938 -24.3125 39.015625 -23.9375 C 38.847656 -23.894531 38.421875 -23.8125 37.734375 -23.6875 C 37.054688 -23.5625 36.023438 -23.453125 34.640625 -23.359375 C 33.265625 -23.265625 31.609375 -23.242188 29.671875 -23.296875 C 27.984375 -23.335938 26.09375 -23.445312 24 -23.625 L 23.953125 -21.859375 C 26.085938 -21.972656 28.0625 -22.007812 29.875 -21.96875 C 31.8125 -21.914062 33.320312 -21.800781 34.40625 -21.625 C 35.5 -21.457031 36.046875 -21.351562 36.046875 -21.3125 C 37.429688 -20.820312 38.460938 -20.21875 39.140625 -19.5 C 39.828125 -18.78125 40.148438 -17.554688 40.109375 -15.828125 C 40.054688 -14.054688 39.78125 -12.773438 39.28125 -11.984375 C 38.789062 -11.191406 37.800781 -10.550781 36.3125 -10.0625 C 36.1875 -10.019531 35.78125 -9.941406 35.09375 -9.828125 C 34.414062 -9.722656 33.34375 -9.640625 31.875 -9.578125 C 30.414062 -9.523438 28.578125 -9.523438 26.359375 -9.578125 L 23.953125 -9.640625 L 23.90625 -8.03125 L 26.6875 -7.953125 C 30.21875 -7.867188 32.9375 -7.71875 34.84375 -7.5 C 36.757812 -7.28125 37.71875 -7.148438 37.71875 -7.109375 C 38.988281 -6.796875 39.953125 -6.238281 40.609375 -5.4375 C 41.265625 -4.644531 41.59375 -3.40625 41.59375 -1.71875 C 41.613281 0.351562 41.285156 1.835938 40.609375 2.734375 C 39.929688 3.640625 38.617188 4.320312 36.671875 4.78125 C 35.347656 5.03125 33.171875 5.238281 30.140625 5.40625 C 27.109375 5.570312 24.054688 5.617188 20.984375 5.546875 Z M 20.984375 5.546875 "/></g></g></g><g fill="#ffffff" fill-opacity="1"><g transform="translate(211.173597, 210.885013)"><g><path d="M 16.859375 9.34375 C 11.273438 8.125 7.773438 6.207031 6.359375 3.59375 C 4.804688 0.476562 4.835938 -4.796875 6.453125 -12.234375 C 7.117188 -15.296875 7.878906 -18.179688 8.734375 -20.890625 C 9.597656 -23.609375 10.613281 -26.671875 11.78125 -30.078125 C 12.519531 -32.128906 13.769531 -33.628906 15.53125 -34.578125 C 17.300781 -35.535156 19.148438 -35.804688 21.078125 -35.390625 C 24.660156 -34.609375 26.757812 -32.644531 27.375 -29.5 C 28 -26.351562 27.765625 -22.25 26.671875 -17.1875 C 26.171875 -14.894531 25.40625 -11.757812 24.375 -7.78125 C 26.976562 -7.375 29.144531 -6.984375 30.875 -6.609375 C 34.6875 -5.773438 37.609375 -4.515625 39.640625 -2.828125 C 41.679688 -1.140625 42.335938 1.363281 41.609375 4.6875 C 41.109375 6.988281 40.289062 8.5625 39.15625 9.40625 C 38.019531 10.25 36.441406 10.679688 34.421875 10.703125 C 32.210938 10.773438 29.472656 10.726562 26.203125 10.5625 C 22.941406 10.394531 19.828125 9.988281 16.859375 9.34375 Z M 16.859375 9.34375 "/></g></g></g><g fill="#ffffff" fill-opacity="1"><g transform="translate(249.077599, 218.857692)"><g><path d="M 15.125 11.25 C 12.757812 10.269531 10.660156 9.300781 8.828125 8.34375 C 7.003906 7.394531 5.738281 6.59375 5.03125 5.9375 C 3.96875 5.0625 3.25 3.832031 2.875 2.25 C 2.5 0.675781 2.671875 -0.984375 3.390625 -2.734375 C 5.410156 -7.640625 9.539062 -8.804688 15.78125 -6.234375 L 16.71875 -8.796875 C 17.75 -11.742188 18.507812 -13.8125 19 -15 C 19.46875 -16.132812 19.863281 -16.925781 20.1875 -17.375 C 16.945312 -18.71875 14.796875 -20.21875 13.734375 -21.875 C 12.679688 -23.53125 12.71875 -25.816406 13.84375 -28.734375 C 14.53125 -30.410156 15.550781 -31.726562 16.90625 -32.6875 C 18.257812 -33.644531 19.910156 -33.941406 21.859375 -33.578125 C 23.484375 -33.222656 26.484375 -32.144531 30.859375 -30.34375 C 34.660156 -28.769531 38.097656 -27.203125 41.171875 -25.640625 C 44.242188 -24.085938 46.09375 -22.914062 46.71875 -22.125 C 47.5 -21.144531 48.078125 -20.070312 48.453125 -18.90625 C 48.828125 -17.75 48.691406 -16.390625 48.046875 -14.828125 C 47.203125 -12.773438 46.207031 -11.316406 45.0625 -10.453125 C 43.925781 -9.585938 42.539062 -9.222656 40.90625 -9.359375 C 39.28125 -9.503906 37.226562 -10.085938 34.75 -11.109375 C 34.488281 -10.367188 34.078125 -9.316406 33.515625 -7.953125 L 30.015625 0.359375 C 32.296875 1.304688 34.003906 2.15625 35.140625 2.90625 C 36.285156 3.664062 37.015625 4.6875 37.328125 5.96875 C 37.640625 7.257812 37.347656 8.988281 36.453125 11.15625 C 35.890625 12.53125 34.957031 13.679688 33.65625 14.609375 C 32.363281 15.546875 30.945312 15.941406 29.40625 15.796875 C 28.101562 15.617188 26.070312 15.09375 23.3125 14.21875 C 20.5625 13.351562 17.832031 12.363281 15.125 11.25 Z M 15.125 11.25 "/></g></g></g><g fill="#ffffff" fill-opacity="1"><g transform="translate(282.892188, 232.013231)"><g><path d="M 17.140625 17.359375 C 11.585938 13.734375 8.003906 9.476562 6.390625 4.59375 C 4.773438 -0.28125 5.9375 -5.738281 9.875 -11.78125 C 13.738281 -17.707031 18.335938 -21.640625 23.671875 -23.578125 C 29.015625 -25.515625 34.96875 -24.347656 41.53125 -20.078125 C 45.863281 -17.253906 48.738281 -13.953125 50.15625 -10.171875 C 51.582031 -6.398438 51.851562 -2.539062 50.96875 1.40625 C 50.09375 5.351562 48.429688 9.207031 45.984375 12.96875 C 42.253906 18.6875 37.890625 21.742188 32.890625 22.140625 C 27.898438 22.546875 22.648438 20.953125 17.140625 17.359375 Z M 24.5625 5.828125 C 25.976562 6.753906 27.679688 7.15625 29.671875 7.03125 C 31.671875 6.914062 33.460938 6.191406 35.046875 4.859375 C 35.929688 4.203125 36.601562 3.53125 37.0625 2.84375 C 37.800781 1.707031 38.128906 0.578125 38.046875 -0.546875 C 37.972656 -1.679688 37.421875 -2.703125 36.390625 -3.609375 C 36.410156 -3.648438 36.148438 -3.816406 35.609375 -4.109375 C 35.066406 -4.410156 34.414062 -4.597656 33.65625 -4.671875 C 32.894531 -4.753906 32.085938 -4.585938 31.234375 -4.171875 C 31.398438 -5.046875 31.3125 -5.800781 30.96875 -6.4375 C 30.632812 -7.070312 30.210938 -7.585938 29.703125 -7.984375 C 29.203125 -8.390625 28.941406 -8.578125 28.921875 -8.546875 C 27.523438 -9.265625 26.234375 -9.429688 25.046875 -9.046875 C 23.867188 -8.660156 22.910156 -7.898438 22.171875 -6.765625 C 21.742188 -6.117188 21.441406 -5.285156 21.265625 -4.265625 C 20.828125 -2.085938 20.957031 -0.0625 21.65625 1.8125 C 22.351562 3.6875 23.320312 5.023438 24.5625 5.828125 Z M 24.5625 5.828125 "/></g></g></g></svg>