<svg xmlns="http://www.w3.org/2000/svg" xmlns:xlink="http://www.w3.org/1999/xlink" width="500" zoomAndPan="magnify" viewBox="0 0 375 374.999991" height="500" preserveAspectRatio="xMidYMid meet" version="1.0"><defs><g/><clipPath id="id1"><path d="M 72.046875 72.046875 L 303.046875 72.046875 L 303.046875 303.046875 L 72.046875 303.046875 Z M 72.046875 72.046875 " clip-rule="nonzero"/></clipPath><clipPath id="id2"><path d="M 134.164062 132 L 240 132 L 240 175 L 134.164062 175 Z M 134.164062 132 " clip-rule="nonzero"/></clipPath><clipPath id="id3"><path d="M 134.164062 132 L 240.664062 132 L 240.664062 175 L 134.164062 175 Z M 134.164062 132 " clip-rule="nonzero"/></clipPath><clipPath id="id4"><path d="M 134.164062 132 L 240.664062 132 L 240.664062 175 L 134.164062 175 Z M 134.164062 132 " clip-rule="nonzero"/></clipPath><clipPath id="id5"><path d="M 169 98.550781 L 186 98.550781 L 186 134 L 169 134 Z M 169 98.550781 " clip-rule="nonzero"/></clipPath><clipPath id="id6"><path d="M 146 98.550781 L 163 98.550781 L 163 134 L 146 134 Z M 146 98.550781 " clip-rule="nonzero"/></clipPath></defs><g clip-path="url(#id1)"><path fill="#f7941d" d="M 187.546875 72.046875 C 123.757812 72.046875 72.046875 123.757812 72.046875 187.546875 C 72.046875 251.335938 123.757812 303.046875 187.546875 303.046875 C 251.335938 303.046875 303.046875 251.335938 303.046875 187.546875 C 303.046875 123.757812 251.335938 72.046875 187.546875 72.046875 " fill-opacity="1" fill-rule="nonzero"/></g><g clip-path="url(#id2)"><path fill="#ffffff" d="M 236.988281 146.410156 C 231.644531 142.800781 222.945312 138.984375 222.957031 138.957031 C 203.199219 131.484375 181.53125 130.992188 161.519531 137.476562 C 161.46875 137.492188 161.417969 137.503906 161.367188 137.519531 C 160.382812 137.824219 159.417969 138.171875 158.460938 138.535156 C 158.074219 138.675781 157.683594 138.8125 157.300781 138.957031 L 157.308594 138.984375 C 149.164062 142.304688 141.96875 147.664062 136.453125 154.585938 C 134.171875 157.445312 134.59375 161.167969 136.976562 162.539062 C 137.152344 162.644531 137.332031 162.753906 137.511719 162.863281 C 139.902344 164.242188 142.996094 163.375 144.742188 161.203125 C 149.0625 155.777344 154.691406 151.558594 161.058594 148.917969 C 161.671875 150.546875 162.289062 152.175781 162.902344 153.804688 C 157.207031 156.402344 152 160.023438 147.5625 164.53125 C 144.992188 167.136719 145.023438 170.882812 147.25 172.496094 C 147.414062 172.621094 147.582031 172.746094 147.746094 172.875 C 149.980469 174.496094 153.148438 173.960938 155.109375 171.980469 C 158.492188 168.546875 162.4375 165.761719 166.75 163.71875 C 181.730469 158.078125 198.238281 158.046875 213.238281 163.621094 C 217.726562 165.777344 221.816406 168.742188 225.273438 172.398438 C 227.199219 174.417969 230.355469 175.019531 232.621094 173.4375 C 232.789062 173.316406 232.957031 173.191406 233.125 173.070312 C 235.382812 171.503906 235.488281 167.757812 232.972656 165.101562 C 228.496094 160.367188 223.183594 156.554688 217.34375 153.828125 C 217.953125 152.210938 218.566406 150.59375 219.175781 148.972656 C 223.28125 150.332031 227.167969 152.335938 230.679688 154.941406 C 232.925781 156.589844 236.136719 156.632812 238.09375 154.683594 C 238.238281 154.53125 238.382812 154.382812 238.527344 154.230469 C 240.476562 152.292969 240.019531 148.457031 236.988281 146.410156 " fill-opacity="1" fill-rule="nonzero"/></g><g clip-path="url(#id3)"><path fill="#f7941d" d="M 236.988281 146.410156 L 237.207031 146.089844 C 234.507812 144.265625 230.992188 142.40625 228.140625 140.996094 C 226.71875 140.289062 225.460938 139.695312 224.5625 139.277344 C 224.113281 139.066406 223.75 138.898438 223.503906 138.785156 C 223.378906 138.726562 223.285156 138.683594 223.222656 138.65625 C 223.191406 138.640625 223.167969 138.628906 223.15625 138.625 L 223.148438 138.621094 L 223.0625 138.789062 L 223.160156 138.625 L 223.148438 138.621094 L 223.0625 138.789062 L 223.160156 138.625 L 222.976562 138.9375 L 223.191406 138.648438 L 223.160156 138.625 L 222.976562 138.9375 L 223.191406 138.648438 L 222.960938 138.957031 L 223.242188 138.691406 C 223.214844 138.664062 223.203125 138.65625 223.191406 138.648438 L 222.960938 138.957031 L 223.242188 138.691406 L 222.957031 138.957031 L 223.292969 138.761719 C 223.269531 138.722656 223.253906 138.707031 223.242188 138.691406 L 222.957031 138.957031 L 223.292969 138.761719 L 222.957031 138.957031 L 223.34375 138.957031 C 223.34375 138.851562 223.3125 138.796875 223.292969 138.761719 L 222.957031 138.957031 L 223.34375 138.957031 C 223.34375 138.796875 223.246094 138.652344 223.09375 138.59375 C 212.472656 134.574219 201.296875 132.566406 190.125 132.566406 C 180.429688 132.566406 170.734375 134.082031 161.402344 137.109375 L 161.519531 137.476562 L 161.40625 137.105469 C 161.382812 137.113281 161.328125 137.125 161.25 137.148438 C 160.257812 137.457031 159.285156 137.804688 158.320312 138.167969 L 158.460938 138.535156 L 158.328125 138.167969 C 157.941406 138.308594 157.554688 138.445312 157.164062 138.59375 C 157.066406 138.628906 156.988281 138.703125 156.945312 138.800781 C 156.902344 138.894531 156.898438 139 156.9375 139.097656 L 156.945312 139.125 L 157.308594 138.984375 L 157.164062 138.625 C 148.953125 141.96875 141.707031 147.367188 136.148438 154.34375 C 135.070312 155.695312 134.558594 157.238281 134.558594 158.675781 C 134.558594 159.554688 134.75 160.390625 135.125 161.117188 C 135.5 161.84375 136.058594 162.460938 136.785156 162.875 L 136.976562 162.539062 L 136.777344 162.871094 C 136.953125 162.976562 137.128906 163.085938 137.308594 163.195312 L 137.316406 163.199219 C 138.167969 163.691406 139.101562 163.917969 140.03125 163.917969 C 141.925781 163.917969 143.800781 162.992188 145.042969 161.449219 L 145.046875 161.445312 C 149.328125 156.074219 154.898438 151.894531 161.207031 149.277344 L 161.058594 148.917969 L 160.695312 149.054688 C 161.308594 150.683594 161.925781 152.3125 162.539062 153.941406 L 162.902344 153.804688 L 162.742188 153.449219 C 157.003906 156.066406 151.757812 159.714844 147.285156 164.257812 C 145.894531 165.667969 145.214844 167.40625 145.214844 169.015625 C 145.214844 169.773438 145.367188 170.503906 145.667969 171.15625 C 145.96875 171.808594 146.425781 172.378906 147.019531 172.8125 L 147.25 172.496094 L 147.015625 172.804688 C 147.179688 172.929688 147.34375 173.058594 147.507812 173.183594 L 147.515625 173.191406 C 148.488281 173.894531 149.625 174.222656 150.757812 174.222656 C 152.445312 174.21875 154.140625 173.511719 155.386719 172.257812 L 155.390625 172.253906 C 158.738281 168.855469 162.644531 166.09375 166.914062 164.074219 L 166.75 163.71875 L 166.886719 164.085938 C 174.378906 161.261719 182.253906 159.855469 190.128906 159.855469 C 197.910156 159.855469 205.691406 161.234375 213.101562 163.988281 L 213.238281 163.621094 L 213.070312 163.972656 C 217.515625 166.105469 221.566406 169.042969 224.992188 172.667969 C 226.242188 173.976562 227.976562 174.726562 229.703125 174.726562 C 230.796875 174.726562 231.894531 174.421875 232.84375 173.757812 L 232.851562 173.753906 C 233.019531 173.628906 233.1875 173.507812 233.355469 173.386719 L 233.125 173.070312 L 233.347656 173.390625 C 233.96875 172.960938 234.441406 172.378906 234.757812 171.714844 C 235.070312 171.046875 235.230469 170.296875 235.230469 169.515625 C 235.230469 167.941406 234.585938 166.238281 233.257812 164.835938 C 228.746094 160.066406 223.394531 156.222656 217.507812 153.472656 L 217.34375 153.828125 L 217.707031 153.964844 C 218.320312 152.347656 218.929688 150.730469 219.539062 149.113281 L 219.175781 148.972656 L 219.054688 149.34375 C 223.117188 150.691406 226.972656 152.675781 230.449219 155.253906 C 231.605469 156.105469 233 156.550781 234.375 156.554688 C 235.832031 156.554688 237.28125 156.042969 238.367188 154.957031 L 238.375 154.953125 C 238.519531 154.800781 238.664062 154.652344 238.808594 154.5 L 238.527344 154.230469 L 238.800781 154.507812 C 239.664062 153.652344 240.089844 152.46875 240.089844 151.234375 C 240.089844 149.378906 239.132812 147.386719 237.207031 146.089844 L 236.988281 146.410156 L 236.773438 146.734375 C 238.484375 147.890625 239.3125 149.648438 239.3125 151.234375 C 239.3125 152.292969 238.949219 153.261719 238.25 153.953125 L 238.242188 153.964844 C 238.101562 154.113281 237.957031 154.261719 237.8125 154.414062 L 238.09375 154.683594 L 237.820312 154.40625 C 236.890625 155.328125 235.65625 155.769531 234.375 155.773438 C 233.171875 155.773438 231.929688 155.378906 230.910156 154.625 L 230.910156 154.628906 C 227.367188 152 223.441406 149.976562 219.296875 148.605469 C 219.097656 148.539062 218.882812 148.640625 218.8125 148.835938 C 218.203125 150.453125 217.589844 152.070312 216.980469 153.6875 C 216.90625 153.878906 216.996094 154.09375 217.179688 154.179688 C 222.976562 156.890625 228.25 160.671875 232.691406 165.371094 C 233.890625 166.636719 234.449219 168.152344 234.449219 169.515625 C 234.449219 170.191406 234.3125 170.828125 234.050781 171.378906 C 233.789062 171.933594 233.40625 172.402344 232.902344 172.75 L 232.894531 172.753906 C 232.726562 172.878906 232.558594 173 232.390625 173.125 L 232.621094 173.4375 L 232.398438 173.117188 C 231.585938 173.683594 230.652344 173.945312 229.703125 173.945312 C 228.203125 173.949219 226.660156 173.289062 225.558594 172.128906 L 225.558594 172.132812 C 222.066406 168.4375 217.9375 165.445312 213.40625 163.269531 L 213.371094 163.253906 C 205.875 160.46875 198.003906 159.074219 190.128906 159.074219 C 182.160156 159.074219 174.191406 160.5 166.609375 163.355469 L 166.582031 163.367188 C 162.230469 165.429688 158.246094 168.242188 154.835938 171.710938 L 154.835938 171.707031 C 153.734375 172.816406 152.226562 173.441406 150.757812 173.441406 C 149.769531 173.441406 148.804688 173.160156 147.976562 172.558594 L 147.746094 172.875 L 147.984375 172.5625 C 147.816406 172.4375 147.652344 172.3125 147.484375 172.183594 L 147.480469 172.179688 C 146.992188 171.828125 146.625 171.367188 146.375 170.828125 C 146.125 170.289062 145.996094 169.667969 145.996094 169.015625 C 145.996094 167.625 146.585938 166.078125 147.839844 164.804688 C 152.242188 160.332031 157.414062 156.734375 163.066406 154.160156 C 163.253906 154.074219 163.339844 153.859375 163.269531 153.667969 C 162.652344 152.039062 162.039062 150.40625 161.421875 148.777344 C 161.386719 148.679688 161.308594 148.601562 161.214844 148.558594 C 161.117188 148.515625 161.007812 148.515625 160.910156 148.554688 C 154.480469 151.226562 148.800781 155.484375 144.4375 160.960938 C 143.339844 162.324219 141.667969 163.140625 140.03125 163.140625 C 139.226562 163.140625 138.433594 162.945312 137.703125 162.523438 L 137.511719 162.863281 L 137.710938 162.527344 C 137.535156 162.421875 137.359375 162.3125 137.175781 162.203125 L 137.171875 162.199219 C 136.582031 161.863281 136.128906 161.367188 135.816406 160.761719 C 135.503906 160.15625 135.335938 159.441406 135.335938 158.675781 C 135.335938 157.425781 135.785156 156.046875 136.757812 154.828125 C 142.230469 147.960938 149.371094 142.640625 157.457031 139.34375 C 157.652344 139.265625 157.75 139.042969 157.675781 138.84375 L 157.664062 138.820312 L 157.300781 138.957031 L 157.4375 139.320312 C 157.816406 139.179688 158.203125 139.042969 158.59375 138.902344 L 158.597656 138.898438 C 159.550781 138.539062 160.507812 138.195312 161.480469 137.890625 C 161.507812 137.882812 161.554688 137.875 161.632812 137.851562 L 161.640625 137.847656 C 170.898438 134.847656 180.511719 133.347656 190.125 133.347656 C 201.207031 133.347656 212.285156 135.335938 222.820312 139.324219 L 222.957031 138.957031 L 222.566406 138.957031 C 222.566406 139.027344 222.585938 139.078125 222.597656 139.113281 C 222.628906 139.179688 222.65625 139.207031 222.671875 139.222656 C 222.707031 139.261719 222.722656 139.269531 222.734375 139.277344 L 222.769531 139.300781 C 222.796875 139.316406 222.8125 139.324219 222.839844 139.335938 C 222.9375 139.382812 223.144531 139.476562 223.449219 139.617188 C 224.503906 140.105469 226.726562 141.136719 229.242188 142.421875 C 231.757812 143.703125 234.5625 145.242188 236.773438 146.734375 L 236.988281 146.410156 " fill-opacity="1" fill-rule="nonzero"/></g><path fill="#ffffff" d="M 237.199219 146.410156 C 231.851562 142.800781 223.152344 138.984375 223.164062 138.957031 C 203.40625 131.484375 181.738281 130.992188 161.726562 137.476562 C 161.675781 137.492188 161.625 137.503906 161.574219 137.519531 C 160.59375 137.824219 159.625 138.171875 158.667969 138.535156 C 158.28125 138.675781 157.890625 138.8125 157.507812 138.957031 L 157.519531 138.984375 C 149.371094 142.304688 142.175781 147.664062 136.660156 154.585938 C 134.378906 157.445312 134.800781 161.167969 137.1875 162.539062 C 137.363281 162.644531 137.539062 162.753906 137.71875 162.863281 C 140.109375 164.242188 143.203125 163.375 144.949219 161.203125 C 149.273438 155.777344 154.898438 151.558594 161.265625 148.917969 C 161.882812 150.546875 162.496094 152.175781 163.113281 153.804688 C 157.417969 156.402344 152.207031 160.023438 147.769531 164.53125 C 145.203125 167.136719 145.230469 170.882812 147.457031 172.496094 C 147.621094 172.621094 147.789062 172.746094 147.953125 172.875 C 150.1875 174.496094 153.355469 173.960938 155.320312 171.980469 C 158.699219 168.546875 162.648438 165.761719 166.957031 163.71875 C 181.9375 158.078125 198.445312 158.046875 213.445312 163.621094 C 217.9375 165.777344 222.023438 168.742188 225.484375 172.398438 C 227.40625 174.417969 230.5625 175.019531 232.828125 173.4375 C 232.996094 173.316406 233.164062 173.191406 233.332031 173.070312 C 235.589844 171.503906 235.695312 167.757812 233.183594 165.101562 C 228.707031 160.367188 223.394531 156.554688 217.550781 153.828125 C 218.164062 152.210938 218.773438 150.59375 219.382812 148.972656 C 223.488281 150.332031 227.375 152.335938 230.886719 154.941406 C 233.132812 156.589844 236.34375 156.632812 238.300781 154.683594 C 238.445312 154.53125 238.589844 154.382812 238.734375 154.230469 C 240.683594 152.292969 240.230469 148.457031 237.199219 146.410156 " fill-opacity="1" fill-rule="nonzero"/><g clip-path="url(#id4)"><path fill="#f7941d" d="M 237.199219 146.410156 L 237.417969 146.089844 C 234.714844 144.265625 231.199219 142.40625 228.351562 140.996094 C 226.925781 140.289062 225.671875 139.695312 224.769531 139.277344 C 224.320312 139.066406 223.957031 138.898438 223.710938 138.785156 C 223.585938 138.726562 223.492188 138.683594 223.429688 138.65625 C 223.398438 138.640625 223.375 138.628906 223.363281 138.625 L 223.355469 138.621094 L 223.269531 138.785156 L 223.367188 138.625 L 223.355469 138.621094 L 223.269531 138.785156 L 223.367188 138.625 L 223.183594 138.933594 L 223.398438 138.648438 L 223.367188 138.625 L 223.183594 138.933594 L 223.398438 138.648438 L 223.167969 138.953125 L 223.449219 138.691406 C 223.421875 138.664062 223.410156 138.65625 223.398438 138.648438 L 223.167969 138.953125 L 223.449219 138.691406 L 223.164062 138.957031 L 223.5 138.761719 C 223.476562 138.722656 223.460938 138.707031 223.449219 138.691406 L 223.164062 138.957031 L 223.5 138.761719 L 223.164062 138.957031 L 223.554688 138.957031 C 223.550781 138.851562 223.519531 138.796875 223.5 138.761719 L 223.164062 138.957031 L 223.554688 138.957031 C 223.554688 138.796875 223.453125 138.652344 223.300781 138.59375 C 212.679688 134.574219 201.507812 132.566406 190.332031 132.566406 C 180.636719 132.566406 170.941406 134.082031 161.609375 137.109375 L 161.726562 137.476562 L 161.617188 137.105469 C 161.589844 137.113281 161.535156 137.125 161.457031 137.148438 C 160.464844 137.457031 159.492188 137.804688 158.53125 138.167969 L 158.667969 138.535156 L 158.535156 138.167969 C 158.148438 138.308594 157.761719 138.445312 157.371094 138.59375 C 157.167969 138.667969 157.070312 138.894531 157.144531 139.09375 L 157.152344 139.121094 L 157.519531 138.984375 L 157.371094 138.625 C 149.160156 141.96875 141.914062 147.367188 136.355469 154.34375 C 135.277344 155.695312 134.765625 157.238281 134.765625 158.675781 C 134.765625 159.550781 134.957031 160.390625 135.332031 161.117188 C 135.707031 161.84375 136.265625 162.460938 136.992188 162.875 L 137.1875 162.539062 L 136.984375 162.871094 C 137.160156 162.976562 137.335938 163.085938 137.515625 163.195312 L 137.523438 163.199219 C 138.375 163.691406 139.308594 163.917969 140.242188 163.917969 C 142.132812 163.917969 144.007812 162.992188 145.253906 161.449219 L 145.253906 161.445312 C 149.535156 156.074219 155.109375 151.894531 161.417969 149.277344 L 161.265625 148.917969 L 160.902344 149.054688 C 161.515625 150.683594 162.132812 152.3125 162.746094 153.941406 L 163.113281 153.804688 L 162.949219 153.449219 C 157.210938 156.066406 151.964844 159.714844 147.492188 164.257812 C 146.101562 165.667969 145.425781 167.40625 145.425781 169.015625 C 145.425781 169.773438 145.574219 170.503906 145.878906 171.15625 C 146.179688 171.808594 146.632812 172.378906 147.230469 172.8125 L 147.457031 172.496094 L 147.222656 172.804688 C 147.386719 172.929688 147.554688 173.058594 147.71875 173.183594 L 147.726562 173.191406 C 148.695312 173.894531 149.832031 174.222656 150.96875 174.222656 C 152.652344 174.21875 154.347656 173.511719 155.59375 172.257812 L 155.597656 172.253906 C 158.945312 168.855469 162.855469 166.09375 167.125 164.074219 L 166.957031 163.71875 L 167.09375 164.085938 C 174.585938 161.261719 182.460938 159.855469 190.335938 159.855469 C 198.117188 159.855469 205.898438 161.234375 213.308594 163.988281 L 213.445312 163.621094 L 213.277344 163.972656 C 217.726562 166.105469 221.773438 169.042969 225.199219 172.667969 L 225.203125 172.667969 C 226.453125 173.976562 228.183594 174.726562 229.910156 174.726562 C 231.003906 174.726562 232.101562 174.421875 233.050781 173.757812 L 233.058594 173.753906 C 233.226562 173.628906 233.394531 173.507812 233.5625 173.386719 L 233.332031 173.070312 L 233.554688 173.390625 C 234.175781 172.960938 234.648438 172.378906 234.964844 171.714844 C 235.277344 171.046875 235.4375 170.296875 235.4375 169.515625 C 235.4375 167.941406 234.792969 166.238281 233.464844 164.835938 C 228.953125 160.066406 223.601562 156.222656 217.714844 153.472656 L 217.550781 153.828125 L 217.914062 153.964844 C 218.527344 152.347656 219.136719 150.730469 219.746094 149.113281 L 219.382812 148.972656 L 219.261719 149.34375 C 223.328125 150.691406 227.179688 152.675781 230.65625 155.253906 C 231.8125 156.105469 233.207031 156.550781 234.582031 156.554688 C 236.042969 156.554688 237.488281 156.042969 238.574219 154.957031 L 238.582031 154.953125 C 238.726562 154.800781 238.871094 154.652344 239.015625 154.5 L 238.734375 154.230469 L 239.007812 154.507812 C 239.871094 153.652344 240.296875 152.46875 240.296875 151.234375 C 240.296875 149.378906 239.339844 147.386719 237.417969 146.089844 L 237.199219 146.410156 L 236.980469 146.734375 C 238.695312 147.890625 239.519531 149.648438 239.519531 151.234375 C 239.519531 152.289062 239.15625 153.261719 238.460938 153.953125 L 238.453125 153.964844 C 238.308594 154.113281 238.164062 154.261719 238.019531 154.414062 L 238.300781 154.683594 L 238.027344 154.40625 C 237.097656 155.328125 235.863281 155.769531 234.582031 155.773438 C 233.375 155.773438 232.136719 155.378906 231.117188 154.625 L 231.121094 154.628906 C 227.574219 152 223.648438 149.976562 219.503906 148.605469 C 219.308594 148.539062 219.09375 148.640625 219.019531 148.835938 C 218.410156 150.453125 217.796875 152.070312 217.1875 153.6875 C 217.117188 153.878906 217.203125 154.09375 217.386719 154.179688 C 223.183594 156.890625 228.457031 160.671875 232.898438 165.371094 C 234.097656 166.636719 234.660156 168.152344 234.660156 169.515625 C 234.660156 170.191406 234.519531 170.828125 234.261719 171.378906 C 233.996094 171.933594 233.613281 172.402344 233.109375 172.75 L 233.105469 172.753906 C 232.933594 172.878906 232.765625 173 232.597656 173.125 L 232.828125 173.4375 L 232.605469 173.117188 C 231.792969 173.683594 230.863281 173.945312 229.910156 173.945312 C 228.410156 173.949219 226.867188 173.289062 225.765625 172.128906 L 225.765625 172.132812 C 222.273438 168.4375 218.148438 165.445312 213.613281 163.269531 L 213.578125 163.253906 C 206.082031 160.46875 198.210938 159.074219 190.335938 159.074219 C 182.367188 159.074219 174.398438 160.5 166.820312 163.355469 L 166.789062 163.367188 C 162.4375 165.429688 158.457031 168.242188 155.042969 171.710938 L 155.042969 171.707031 C 153.945312 172.816406 152.433594 173.441406 150.96875 173.441406 C 149.976562 173.441406 149.011719 173.160156 148.183594 172.558594 L 147.953125 172.875 L 148.191406 172.5625 C 148.023438 172.4375 147.859375 172.3125 147.695312 172.1875 L 147.6875 172.179688 C 147.203125 171.828125 146.835938 171.367188 146.585938 170.828125 C 146.335938 170.289062 146.203125 169.667969 146.203125 169.015625 C 146.203125 167.625 146.792969 166.078125 148.046875 164.804688 C 152.449219 160.332031 157.621094 156.734375 163.273438 154.160156 C 163.460938 154.074219 163.546875 153.859375 163.476562 153.667969 C 162.859375 152.039062 162.246094 150.40625 161.632812 148.777344 C 161.59375 148.679688 161.519531 148.601562 161.421875 148.558594 C 161.324219 148.515625 161.214844 148.515625 161.117188 148.554688 C 154.6875 151.226562 149.007812 155.484375 144.644531 160.960938 C 143.550781 162.324219 141.875 163.140625 140.242188 163.140625 C 139.4375 163.140625 138.640625 162.945312 137.914062 162.523438 L 137.71875 162.863281 L 137.917969 162.527344 C 137.742188 162.421875 137.566406 162.3125 137.386719 162.203125 L 137.378906 162.199219 C 136.792969 161.863281 136.335938 161.367188 136.023438 160.761719 C 135.710938 160.15625 135.546875 159.441406 135.546875 158.675781 C 135.546875 157.425781 135.992188 156.046875 136.964844 154.828125 C 142.441406 147.960938 149.578125 142.640625 157.664062 139.34375 C 157.859375 139.265625 157.957031 139.046875 157.882812 138.847656 L 157.871094 138.820312 L 157.507812 138.957031 L 157.644531 139.320312 C 158.023438 139.179688 158.410156 139.042969 158.800781 138.902344 L 158.804688 138.898438 C 159.757812 138.539062 160.71875 138.195312 161.691406 137.890625 C 161.714844 137.882812 161.761719 137.875 161.839844 137.851562 L 161.847656 137.847656 C 171.105469 134.847656 180.71875 133.347656 190.332031 133.347656 C 201.414062 133.347656 212.492188 135.335938 223.027344 139.324219 L 223.164062 138.957031 L 222.773438 138.957031 C 222.773438 139.027344 222.792969 139.078125 222.804688 139.113281 C 222.835938 139.179688 222.863281 139.207031 222.878906 139.226562 C 222.914062 139.261719 222.929688 139.269531 222.941406 139.277344 L 222.980469 139.300781 C 223.007812 139.316406 223.019531 139.324219 223.046875 139.335938 C 223.148438 139.382812 223.351562 139.476562 223.65625 139.617188 C 224.710938 140.105469 226.9375 141.136719 229.453125 142.421875 C 231.964844 143.703125 234.773438 145.242188 236.980469 146.734375 L 237.199219 146.410156 " fill-opacity="1" fill-rule="nonzero"/></g><path fill="#ffffff" d="M 177.421875 128.328125 C 176.679688 131.421875 174.554688 133.5625 172.550781 133.082031 C 170.601562 132.613281 169.746094 129.753906 170.488281 126.660156 L 173.71875 103.558594 C 174.460938 100.46875 177.566406 98.5625 180.660156 99.304688 C 183.75 100.050781 185.652344 103.160156 184.910156 106.253906 L 177.421875 128.328125 " fill-opacity="1" fill-rule="nonzero"/><g clip-path="url(#id5)"><path fill="#f7941d" d="M 177.421875 128.328125 L 177.042969 128.234375 C 176.722656 129.578125 176.125 130.730469 175.414062 131.527344 C 175.058594 131.929688 174.675781 132.238281 174.285156 132.445312 C 173.898438 132.652344 173.507812 132.757812 173.121094 132.757812 C 172.960938 132.757812 172.800781 132.738281 172.640625 132.703125 C 172.332031 132.625 172.0625 132.484375 171.816406 132.273438 C 171.449219 131.960938 171.144531 131.492188 170.9375 130.902344 C 170.726562 130.3125 170.613281 129.601562 170.613281 128.828125 C 170.613281 128.171875 170.695312 127.46875 170.867188 126.75 L 170.875 126.714844 L 174.101562 103.613281 L 173.71875 103.558594 L 174.097656 103.652344 C 174.6875 101.1875 176.886719 99.535156 179.308594 99.535156 C 179.722656 99.535156 180.144531 99.582031 180.566406 99.683594 C 183.027344 100.273438 184.679688 102.476562 184.679688 104.902344 C 184.679688 105.320312 184.632812 105.738281 184.53125 106.164062 L 184.910156 106.253906 L 184.542969 106.128906 L 177.054688 128.203125 L 177.042969 128.234375 L 177.421875 128.328125 L 177.792969 128.453125 L 185.277344 106.378906 L 185.289062 106.34375 C 185.40625 105.863281 185.460938 105.378906 185.460938 104.902344 C 185.460938 102.121094 183.566406 99.605469 180.75 98.925781 C 180.265625 98.808594 179.785156 98.753906 179.308594 98.753906 C 176.53125 98.753906 174.015625 100.648438 173.339844 103.46875 L 173.332031 103.503906 L 170.101562 126.605469 L 170.488281 126.660156 L 170.109375 126.566406 C 169.921875 127.34375 169.832031 128.105469 169.832031 128.828125 C 169.832031 129.960938 170.054688 130.996094 170.488281 131.816406 C 170.707031 132.226562 170.980469 132.582031 171.308594 132.867188 C 171.640625 133.148438 172.027344 133.355469 172.457031 133.460938 C 172.679688 133.511719 172.902344 133.539062 173.121094 133.539062 C 173.652344 133.539062 174.167969 133.390625 174.652344 133.132812 C 175.378906 132.746094 176.03125 132.105469 176.570312 131.300781 C 177.109375 130.492188 177.539062 129.511719 177.800781 128.417969 L 177.421875 128.328125 L 177.792969 128.453125 L 177.421875 128.328125 " fill-opacity="1" fill-rule="nonzero"/></g><path fill="#ffffff" d="M 177.113281 123.730469 C 176.652344 125.652344 175.332031 126.984375 174.085938 126.683594 C 172.875 126.394531 172.34375 124.617188 172.804688 122.695312 L 174.8125 108.347656 C 175.273438 106.421875 177.203125 105.238281 179.121094 105.703125 C 181.042969 106.164062 182.226562 108.097656 181.761719 110.019531 L 177.113281 123.730469 " fill-opacity="1" fill-rule="nonzero"/><path fill="#f7941d" d="M 177.113281 123.730469 L 176.734375 123.640625 C 176.539062 124.453125 176.179688 125.148438 175.753906 125.621094 C 175.542969 125.859375 175.316406 126.039062 175.09375 126.160156 C 174.871094 126.277344 174.652344 126.335938 174.441406 126.335938 C 174.351562 126.335938 174.265625 126.324219 174.175781 126.304688 C 174.007812 126.265625 173.863281 126.1875 173.726562 126.070312 C 173.523438 125.898438 173.34375 125.628906 173.222656 125.28125 C 173.097656 124.933594 173.03125 124.507812 173.03125 124.042969 C 173.03125 123.644531 173.078125 123.21875 173.183594 122.785156 L 173.191406 122.75 L 175.195312 108.398438 L 174.8125 108.347656 L 175.1875 108.4375 C 175.539062 106.972656 176.847656 105.992188 178.285156 105.992188 C 178.53125 105.992188 178.78125 106.019531 179.03125 106.082031 C 180.492188 106.433594 181.472656 107.738281 181.472656 109.179688 C 181.472656 109.425781 181.445312 109.675781 181.386719 109.929688 L 181.761719 110.019531 L 181.394531 109.894531 L 176.742188 123.605469 L 176.734375 123.640625 L 177.113281 123.730469 L 177.480469 123.855469 L 182.132812 110.144531 L 182.140625 110.109375 C 182.214844 109.796875 182.253906 109.484375 182.253906 109.179688 C 182.253906 107.386719 181.03125 105.761719 179.214844 105.324219 C 178.902344 105.246094 178.589844 105.210938 178.285156 105.210938 C 176.492188 105.210938 174.871094 106.433594 174.433594 108.253906 L 174.425781 108.292969 L 172.417969 122.640625 L 172.804688 122.695312 L 172.425781 122.601562 C 172.308594 123.097656 172.25 123.582031 172.25 124.042969 C 172.25 124.765625 172.390625 125.429688 172.675781 125.96875 C 172.816406 126.234375 173 126.472656 173.21875 126.664062 C 173.441406 126.851562 173.703125 126.992188 173.992188 127.0625 C 174.144531 127.097656 174.292969 127.117188 174.441406 127.117188 C 174.796875 127.117188 175.144531 127.015625 175.460938 126.847656 C 175.941406 126.589844 176.359375 126.175781 176.707031 125.660156 C 177.050781 125.140625 177.324219 124.515625 177.492188 123.820312 L 177.113281 123.730469 L 177.480469 123.855469 L 177.113281 123.730469 " fill-opacity="1" fill-rule="nonzero"/><path fill="#ffffff" d="M 155 128.328125 C 155.742188 131.421875 157.867188 133.5625 159.875 133.082031 C 161.820312 132.613281 162.675781 129.753906 161.933594 126.660156 L 158.707031 103.558594 C 157.964844 100.46875 154.855469 98.5625 151.765625 99.304688 C 148.675781 100.050781 146.769531 103.160156 147.511719 106.253906 L 155 128.328125 " fill-opacity="1" fill-rule="nonzero"/><g clip-path="url(#id6)"><path fill="#f7941d" d="M 155 128.328125 L 154.621094 128.417969 C 154.972656 129.875 155.613281 131.136719 156.425781 132.046875 C 156.832031 132.503906 157.285156 132.875 157.769531 133.132812 C 158.253906 133.390625 158.769531 133.539062 159.300781 133.539062 C 159.519531 133.539062 159.742188 133.511719 159.964844 133.460938 C 160.394531 133.355469 160.78125 133.148438 161.113281 132.867188 C 161.609375 132.441406 161.976562 131.851562 162.21875 131.164062 C 162.464844 130.472656 162.589844 129.679688 162.589844 128.828125 C 162.589844 128.105469 162.5 127.34375 162.3125 126.566406 L 161.933594 126.660156 L 162.320312 126.605469 L 159.089844 103.503906 L 159.085938 103.46875 C 158.40625 100.648438 155.890625 98.753906 153.113281 98.753906 C 152.636719 98.753906 152.15625 98.808594 151.671875 98.925781 C 148.855469 99.605469 146.960938 102.121094 146.960938 104.902344 C 146.960938 105.378906 147.015625 105.863281 147.132812 106.347656 L 147.144531 106.378906 L 154.628906 128.453125 L 155 128.328125 L 154.621094 128.417969 L 155 128.328125 L 155.367188 128.203125 L 147.882812 106.128906 L 147.511719 106.253906 L 147.890625 106.164062 C 147.789062 105.738281 147.742188 105.320312 147.742188 104.902344 C 147.742188 102.476562 149.394531 100.273438 151.855469 99.683594 C 152.277344 99.582031 152.699219 99.535156 153.113281 99.535156 C 155.535156 99.535156 157.738281 101.1875 158.328125 103.652344 L 158.707031 103.558594 L 158.320312 103.613281 L 161.546875 126.714844 L 161.554688 126.75 C 161.726562 127.46875 161.808594 128.171875 161.808594 128.828125 C 161.8125 129.859375 161.605469 130.777344 161.246094 131.449219 C 161.066406 131.789062 160.851562 132.066406 160.605469 132.273438 C 160.359375 132.484375 160.089844 132.625 159.78125 132.703125 C 159.621094 132.738281 159.460938 132.757812 159.300781 132.757812 C 158.914062 132.757812 158.523438 132.652344 158.136719 132.445312 C 157.554688 132.136719 156.980469 131.589844 156.5 130.867188 C 156.015625 130.144531 155.621094 129.242188 155.378906 128.234375 L 155.367188 128.203125 L 155 128.328125 " fill-opacity="1" fill-rule="nonzero"/></g><path fill="#ffffff" d="M 155.308594 123.730469 C 155.769531 125.652344 157.089844 126.984375 158.335938 126.683594 C 159.546875 126.394531 160.078125 124.617188 159.617188 122.695312 L 157.613281 108.347656 C 157.148438 106.421875 155.21875 105.238281 153.300781 105.703125 C 151.378906 106.164062 150.199219 108.097656 150.660156 110.019531 L 155.308594 123.730469 " fill-opacity="1" fill-rule="nonzero"/><path fill="#f7941d" d="M 155.308594 123.730469 L 154.929688 123.820312 C 155.152344 124.746094 155.5625 125.550781 156.085938 126.140625 C 156.347656 126.433594 156.640625 126.675781 156.960938 126.84375 C 157.277344 127.015625 157.625 127.117188 157.980469 127.117188 C 158.128906 127.117188 158.277344 127.097656 158.429688 127.0625 C 158.71875 126.992188 158.980469 126.851562 159.203125 126.664062 C 159.535156 126.378906 159.773438 125.988281 159.933594 125.542969 C 160.09375 125.09375 160.171875 124.585938 160.171875 124.042969 C 160.171875 123.582031 160.113281 123.097656 159.996094 122.605469 L 159.617188 122.695312 L 160.003906 122.640625 L 157.996094 108.292969 L 157.988281 108.253906 C 157.554688 106.433594 155.929688 105.210938 154.136719 105.210938 C 153.832031 105.210938 153.519531 105.246094 153.210938 105.324219 C 151.390625 105.761719 150.167969 107.386719 150.171875 109.179688 C 150.171875 109.488281 150.207031 109.796875 150.28125 110.109375 L 150.289062 110.144531 L 154.941406 123.855469 L 155.308594 123.730469 L 154.929688 123.820312 L 155.308594 123.730469 L 155.679688 123.605469 L 151.027344 109.894531 L 150.660156 110.019531 L 151.039062 109.929688 C 150.976562 109.675781 150.949219 109.425781 150.949219 109.179688 C 150.949219 107.738281 151.929688 106.433594 153.390625 106.082031 C 153.640625 106.019531 153.890625 105.992188 154.136719 105.992188 C 155.574219 105.992188 156.882812 106.972656 157.234375 108.4375 L 157.613281 108.347656 L 157.226562 108.398438 L 159.230469 122.75 L 159.238281 122.785156 C 159.34375 123.222656 159.390625 123.648438 159.390625 124.042969 C 159.394531 124.664062 159.269531 125.210938 159.058594 125.601562 C 158.957031 125.796875 158.832031 125.953125 158.695312 126.070312 C 158.558594 126.1875 158.414062 126.265625 158.246094 126.304688 C 158.15625 126.324219 158.070312 126.335938 157.980469 126.335938 C 157.769531 126.335938 157.550781 126.277344 157.328125 126.160156 C 156.992188 125.980469 156.652344 125.660156 156.363281 125.226562 C 156.074219 124.792969 155.835938 124.25 155.6875 123.640625 L 155.679688 123.605469 L 155.308594 123.730469 " fill-opacity="1" fill-rule="nonzero"/><path fill="#ffffff" d="M 182.777344 140.019531 C 182.777344 147.972656 175.28125 154.421875 166.027344 154.421875 C 156.78125 154.421875 149.28125 147.972656 149.28125 140.019531 C 149.28125 132.058594 156.78125 120.703125 166.027344 120.703125 C 175.28125 120.703125 182.777344 132.058594 182.777344 140.019531 " fill-opacity="1" fill-rule="nonzero"/><path fill="#f7941d" d="M 182.777344 140.019531 L 182.386719 140.019531 C 182.386719 143.871094 180.578125 147.363281 177.621094 149.90625 C 174.664062 152.449219 170.566406 154.03125 166.027344 154.03125 C 161.496094 154.03125 157.394531 152.449219 154.441406 149.90625 C 151.480469 147.363281 149.667969 143.871094 149.667969 140.019531 C 149.667969 138.089844 150.125 135.929688 150.960938 133.785156 C 152.207031 130.5625 154.304688 127.371094 156.925781 125.003906 C 159.550781 122.632812 162.683594 121.089844 166.027344 121.089844 C 168.261719 121.089844 170.394531 121.777344 172.351562 122.9375 C 175.285156 124.675781 177.804688 127.488281 179.582031 130.601562 C 181.359375 133.714844 182.390625 137.125 182.386719 140.019531 L 183.167969 140.019531 C 183.167969 137.964844 182.6875 135.722656 181.824219 133.5 C 180.53125 130.167969 178.378906 126.890625 175.65625 124.425781 C 172.933594 121.964844 169.621094 120.3125 166.027344 120.3125 C 163.636719 120.3125 161.363281 121.046875 159.3125 122.265625 C 156.230469 124.09375 153.636719 127.003906 151.800781 130.214844 C 149.96875 133.429688 148.890625 136.941406 148.890625 140.019531 C 148.890625 144.121094 150.828125 147.828125 153.933594 150.5 C 157.039062 153.167969 161.3125 154.8125 166.027344 154.8125 C 170.746094 154.8125 175.023438 153.167969 178.125 150.5 C 181.230469 147.828125 183.167969 144.121094 183.167969 140.019531 L 182.777344 140.019531 " fill-opacity="1" fill-rule="nonzero"/><path fill="#ffffff" d="M 167.519531 141.871094 C 166.875 141.617188 166.265625 141.578125 165.550781 141.585938 C 164.835938 141.578125 164.222656 141.617188 163.582031 141.871094 C 162.785156 142.191406 162.890625 143.550781 164.113281 144.542969 C 164.605469 144.941406 165.195312 145.210938 165.546875 145.238281 L 165.550781 145.238281 C 165.902344 145.210938 166.492188 144.941406 166.988281 144.542969 C 168.210938 143.550781 168.316406 142.191406 167.519531 141.871094 " fill-opacity="1" fill-rule="nonzero"/><path fill="#f7941d" d="M 167.519531 141.871094 L 167.664062 141.511719 C 167 141.246094 166.367188 141.195312 165.699219 141.195312 C 165.648438 141.195312 165.597656 141.195312 165.546875 141.195312 L 165.550781 141.585938 L 165.554688 141.195312 C 165.503906 141.195312 165.453125 141.195312 165.402344 141.195312 C 164.734375 141.195312 164.097656 141.246094 163.4375 141.511719 C 163.191406 141.609375 162.992188 141.785156 162.867188 142 C 162.738281 142.21875 162.679688 142.46875 162.679688 142.722656 C 162.683594 143.074219 162.785156 143.445312 162.984375 143.808594 C 163.183594 144.171875 163.476562 144.527344 163.867188 144.84375 C 164.140625 145.066406 164.433594 145.246094 164.714844 145.382812 C 165 145.515625 165.265625 145.605469 165.519531 145.625 L 165.546875 145.238281 L 165.160156 145.238281 C 165.160156 145.363281 165.222656 145.484375 165.328125 145.558594 C 165.433594 145.632812 165.566406 145.648438 165.683594 145.601562 L 165.6875 145.601562 L 165.550781 145.238281 L 165.476562 145.621094 L 165.480469 145.621094 C 165.59375 145.644531 165.710938 145.613281 165.800781 145.539062 C 165.890625 145.464844 165.941406 145.351562 165.941406 145.238281 L 165.550781 145.238281 L 165.582031 145.625 C 165.835938 145.605469 166.101562 145.515625 166.382812 145.382812 C 166.664062 145.246094 166.960938 145.066406 167.234375 144.84375 C 167.621094 144.527344 167.917969 144.171875 168.117188 143.808594 C 168.3125 143.445312 168.417969 143.074219 168.417969 142.722656 C 168.417969 142.46875 168.363281 142.21875 168.234375 142 C 168.109375 141.785156 167.910156 141.609375 167.664062 141.511719 L 167.519531 141.871094 L 167.375 142.234375 C 167.464844 142.273438 167.515625 142.320312 167.5625 142.394531 C 167.609375 142.472656 167.640625 142.582031 167.640625 142.722656 C 167.640625 142.917969 167.578125 143.167969 167.433594 143.4375 C 167.289062 143.703125 167.058594 143.980469 166.742188 144.238281 C 166.523438 144.417969 166.273438 144.570312 166.046875 144.679688 C 165.828125 144.785156 165.617188 144.84375 165.523438 144.847656 C 165.320312 144.863281 165.164062 145.035156 165.164062 145.238281 L 165.550781 145.238281 L 165.625 144.855469 L 165.621094 144.855469 C 165.554688 144.839844 165.476562 144.847656 165.414062 144.871094 L 165.410156 144.875 L 165.546875 145.238281 L 165.9375 145.238281 C 165.9375 145.035156 165.78125 144.863281 165.578125 144.847656 C 165.480469 144.84375 165.273438 144.785156 165.050781 144.679688 C 164.828125 144.570312 164.578125 144.417969 164.355469 144.238281 C 164.039062 143.980469 163.8125 143.699219 163.667969 143.4375 C 163.523438 143.167969 163.460938 142.917969 163.460938 142.722656 C 163.460938 142.582031 163.492188 142.472656 163.535156 142.394531 C 163.582031 142.320312 163.636719 142.273438 163.726562 142.234375 C 164.257812 142.023438 164.765625 141.976562 165.402344 141.976562 C 165.449219 141.976562 165.496094 141.976562 165.546875 141.976562 L 165.554688 141.976562 C 165.601562 141.976562 165.648438 141.976562 165.699219 141.976562 C 166.332031 141.976562 166.84375 142.023438 167.375 142.234375 L 167.519531 141.871094 " fill-opacity="1" fill-rule="nonzero"/><path fill="#f7941d" d="M 174.445312 135.898438 C 174.332031 135.785156 174.152344 135.785156 174.042969 135.898438 L 173.527344 136.414062 C 173.398438 136.332031 173.261719 136.273438 173.109375 136.238281 L 173.109375 135.542969 C 173.109375 135.382812 172.980469 135.257812 172.824219 135.257812 C 172.667969 135.257812 172.539062 135.382812 172.539062 135.542969 L 172.539062 136.238281 C 172.40625 136.269531 172.285156 136.320312 172.167969 136.390625 L 171.675781 135.898438 C 171.566406 135.785156 171.386719 135.785156 171.277344 135.898438 C 171.164062 136.007812 171.164062 136.1875 171.277344 136.300781 L 171.746094 136.773438 C 171.601562 136.984375 171.515625 137.242188 171.515625 137.519531 C 171.515625 138.242188 172.101562 138.828125 172.824219 138.828125 C 173.550781 138.828125 174.136719 138.242188 174.136719 137.519531 C 174.136719 137.257812 174.058594 137.019531 173.929688 136.816406 L 174.445312 136.300781 C 174.554688 136.1875 174.554688 136.007812 174.445312 135.898438 " fill-opacity="1" fill-rule="nonzero"/><path fill="#f7941d" d="M 160.359375 135.898438 C 160.25 135.785156 160.070312 135.785156 159.957031 135.898438 L 159.441406 136.414062 C 159.316406 136.332031 159.175781 136.273438 159.027344 136.238281 L 159.027344 135.542969 C 159.027344 135.382812 158.898438 135.257812 158.742188 135.257812 C 158.585938 135.257812 158.457031 135.382812 158.457031 135.542969 L 158.457031 136.238281 C 158.324219 136.269531 158.199219 136.320312 158.085938 136.390625 L 157.59375 135.898438 C 157.484375 135.785156 157.304688 135.785156 157.191406 135.898438 C 157.082031 136.007812 157.082031 136.1875 157.191406 136.300781 L 157.664062 136.773438 C 157.519531 136.984375 157.429688 137.242188 157.429688 137.519531 C 157.429688 138.242188 158.019531 138.828125 158.742188 138.828125 C 159.464844 138.828125 160.050781 138.242188 160.050781 137.519531 C 160.050781 137.257812 159.976562 137.019531 159.84375 136.816406 L 160.359375 136.300781 C 160.472656 136.1875 160.472656 136.007812 160.359375 135.898438 " fill-opacity="1" fill-rule="nonzero"/><path fill="#ffffff" d="M 216.714844 150.554688 C 216.980469 149.683594 216.511719 148.769531 215.671875 148.457031 C 215.839844 148.335938 215.980469 148.171875 216.046875 147.957031 C 216.207031 147.421875 215.90625 146.859375 215.371094 146.695312 L 215.355469 146.691406 C 215.476562 146.546875 215.574219 146.371094 215.632812 146.179688 C 215.867188 145.410156 215.433594 144.589844 214.660156 144.359375 C 214.21875 144.222656 213.761719 144.3125 213.40625 144.5625 C 213.25 144.125 212.902344 143.765625 212.429688 143.621094 C 211.628906 143.378906 210.78125 143.828125 210.539062 144.628906 C 210.503906 144.734375 210.488281 144.839844 210.480469 144.945312 C 208.953125 145.125 207.605469 146.179688 207.128906 147.742188 C 206.660156 149.285156 207.183594 150.894531 208.324219 151.890625 L 208.296875 151.960938 C 208.101562 152.59375 208.460938 153.269531 209.097656 153.464844 C 209.308594 153.527344 209.519531 153.527344 209.714844 153.484375 C 209.839844 153.976562 210.203125 154.398438 210.726562 154.558594 C 211.515625 154.796875 212.347656 154.351562 212.585938 153.566406 C 212.65625 153.347656 212.664062 153.125 212.632812 152.917969 C 212.773438 153.074219 212.957031 153.199219 213.175781 153.265625 C 213.8125 153.460938 214.484375 153.097656 214.675781 152.460938 C 214.753906 152.203125 214.742188 151.941406 214.65625 151.707031 C 215.539062 151.933594 216.449219 151.433594 216.714844 150.554688 " fill-opacity="1" fill-rule="nonzero"/><path fill="#f7941d" d="M 216.714844 150.554688 L 217.089844 150.667969 C 217.148438 150.464844 217.179688 150.261719 217.179688 150.058594 C 217.179688 149.195312 216.644531 148.402344 215.808594 148.09375 L 215.671875 148.457031 L 215.90625 148.773438 C 216.121094 148.613281 216.324219 148.382812 216.417969 148.070312 C 216.457031 147.933594 216.476562 147.796875 216.476562 147.660156 C 216.476562 147.0625 216.089844 146.507812 215.484375 146.324219 L 215.441406 146.3125 L 215.425781 146.308594 L 215.355469 146.691406 L 215.65625 146.941406 C 215.808594 146.757812 215.929688 146.539062 216.007812 146.292969 C 216.058594 146.113281 216.085938 145.933594 216.085938 145.753906 C 216.085938 144.960938 215.570312 144.226562 214.773438 143.984375 C 214.597656 143.929688 214.421875 143.90625 214.246094 143.90625 C 213.859375 143.90625 213.488281 144.027344 213.183594 144.242188 L 213.40625 144.5625 L 213.773438 144.433594 C 213.582031 143.886719 213.140625 143.429688 212.542969 143.246094 C 212.359375 143.191406 212.171875 143.164062 211.988281 143.164062 C 211.167969 143.164062 210.414062 143.691406 210.164062 144.515625 C 210.125 144.652344 210.101562 144.789062 210.089844 144.917969 L 210.480469 144.945312 L 210.433594 144.558594 C 208.761719 144.753906 207.28125 145.910156 206.757812 147.628906 C 206.628906 148.046875 206.570312 148.476562 206.570312 148.894531 C 206.570312 150.164062 207.125 151.363281 208.066406 152.183594 L 208.324219 151.890625 L 207.964844 151.742188 L 207.9375 151.808594 L 207.921875 151.84375 C 207.875 152 207.855469 152.15625 207.855469 152.308594 C 207.855469 152.996094 208.296875 153.625 208.984375 153.839844 L 208.988281 153.839844 C 209.136719 153.882812 209.289062 153.902344 209.433594 153.902344 C 209.558594 153.902344 209.683594 153.886719 209.800781 153.863281 L 209.714844 153.484375 L 209.339844 153.574219 C 209.488281 154.195312 209.953125 154.730469 210.613281 154.933594 C 210.796875 154.988281 210.980469 155.011719 211.160156 155.011719 C 211.96875 155.015625 212.710938 154.492188 212.960938 153.679688 C 213.015625 153.5 213.039062 153.320312 213.039062 153.144531 C 213.039062 153.046875 213.03125 152.953125 213.019531 152.859375 L 212.632812 152.917969 L 212.34375 153.175781 C 212.527344 153.378906 212.769531 153.550781 213.0625 153.636719 C 213.214844 153.683594 213.371094 153.707031 213.523438 153.707031 C 214.210938 153.707031 214.839844 153.261719 215.050781 152.574219 C 215.097656 152.421875 215.117188 152.269531 215.117188 152.117188 C 215.117188 151.929688 215.085938 151.746094 215.023438 151.574219 L 214.65625 151.707031 L 214.558594 152.085938 C 214.734375 152.128906 214.914062 152.152344 215.085938 152.152344 C 215.984375 152.152344 216.8125 151.574219 217.089844 150.667969 L 216.714844 150.554688 L 216.34375 150.441406 C 216.171875 151.007812 215.652344 151.371094 215.085938 151.371094 C 214.976562 151.371094 214.863281 151.359375 214.753906 151.328125 C 214.613281 151.292969 214.464844 151.339844 214.367188 151.445312 C 214.273438 151.550781 214.242188 151.703125 214.289062 151.839844 C 214.320312 151.929688 214.339844 152.023438 214.339844 152.117188 C 214.339844 152.195312 214.328125 152.269531 214.304688 152.347656 C 214.199219 152.703125 213.871094 152.929688 213.523438 152.929688 C 213.449219 152.929688 213.367188 152.917969 213.289062 152.890625 L 213.285156 152.890625 C 213.144531 152.847656 213.023438 152.765625 212.921875 152.65625 C 212.808594 152.527344 212.625 152.488281 212.46875 152.5625 C 212.3125 152.636719 212.222656 152.800781 212.25 152.972656 C 212.257812 153.03125 212.261719 153.085938 212.261719 153.144531 C 212.261719 153.246094 212.246094 153.347656 212.214844 153.453125 C 212.070312 153.925781 211.632812 154.234375 211.160156 154.234375 C 211.054688 154.234375 210.949219 154.21875 210.839844 154.1875 C 210.453125 154.066406 210.1875 153.757812 210.09375 153.386719 C 210.042969 153.183594 209.839844 153.054688 209.632812 153.101562 C 209.566406 153.117188 209.5 153.125 209.433594 153.125 C 209.359375 153.125 209.285156 153.113281 209.210938 153.09375 L 209.214844 153.09375 C 208.859375 152.984375 208.632812 152.65625 208.632812 152.308594 C 208.632812 152.230469 208.644531 152.152344 208.667969 152.070312 L 208.296875 151.960938 L 208.65625 152.109375 L 208.683594 152.039062 C 208.746094 151.886719 208.707031 151.710938 208.578125 151.597656 C 207.804688 150.921875 207.347656 149.933594 207.347656 148.894531 C 207.347656 148.550781 207.398438 148.203125 207.503906 147.855469 C 207.929688 146.445312 209.148438 145.496094 210.523438 145.335938 C 210.710938 145.3125 210.851562 145.164062 210.867188 144.976562 C 210.875 144.894531 210.886719 144.820312 210.910156 144.742188 C 211.054688 144.257812 211.503906 143.945312 211.988281 143.945312 C 212.09375 143.945312 212.207031 143.960938 212.316406 143.992188 C 212.667969 144.101562 212.921875 144.363281 213.039062 144.695312 C 213.082031 144.808594 213.171875 144.898438 213.289062 144.933594 C 213.40625 144.972656 213.53125 144.953125 213.628906 144.882812 C 213.8125 144.753906 214.027344 144.683594 214.246094 144.683594 C 214.34375 144.683594 214.445312 144.699219 214.546875 144.730469 C 215.011719 144.871094 215.308594 145.296875 215.308594 145.753906 C 215.308594 145.855469 215.292969 145.960938 215.261719 146.066406 C 215.21875 146.207031 215.148438 146.335938 215.054688 146.441406 C 214.96875 146.550781 214.941406 146.695312 214.988281 146.824219 C 215.035156 146.953125 215.148438 147.050781 215.285156 147.078125 L 215.300781 147.078125 L 215.371094 146.695312 L 215.257812 147.070312 C 215.527344 147.148438 215.699219 147.398438 215.699219 147.660156 C 215.699219 147.722656 215.691406 147.78125 215.671875 147.84375 C 215.636719 147.960938 215.5625 148.054688 215.441406 148.144531 C 215.328125 148.230469 215.269531 148.371094 215.289062 148.511719 C 215.308594 148.65625 215.402344 148.773438 215.539062 148.824219 C 216.0625 149.019531 216.402344 149.519531 216.402344 150.058594 C 216.402344 150.1875 216.382812 150.3125 216.34375 150.441406 L 216.714844 150.554688 " fill-opacity="1" fill-rule="nonzero"/><g fill="#ffffff" fill-opacity="1"><g transform="translate(103.687849, 230.850642)"><g><path d="M 8.609375 -2.234375 C 7.578125 -1.578125 6.550781 -1.191406 5.53125 -1.078125 C 4.519531 -0.972656 3.484375 -1.316406 2.421875 -2.109375 C 0.984375 -3.234375 -0.921875 -5.632812 -3.296875 -9.3125 C -4.597656 -11.332031 -5.734375 -13.28125 -6.703125 -15.15625 C -7.679688 -17.03125 -8.253906 -18.429688 -8.421875 -19.359375 C -8.628906 -20.421875 -8.566406 -21.332031 -8.234375 -22.09375 C -7.898438 -22.863281 -7.222656 -23.578125 -6.203125 -24.234375 C -4.648438 -25.234375 -3.222656 -25.410156 -1.921875 -24.765625 C -0.628906 -24.117188 0.753906 -22.78125 2.234375 -20.75 C 2.617188 -21 2.90625 -21.171875 3.09375 -21.265625 C 5 -22.472656 6.070312 -23.117188 6.3125 -23.203125 C 5.375 -24.648438 4.734375 -25.882812 4.390625 -26.90625 C 4.054688 -27.9375 4.039062 -28.878906 4.34375 -29.734375 C 4.644531 -30.585938 5.351562 -31.382812 6.46875 -32.125 C 8.332031 -33.34375 10.128906 -33.269531 11.859375 -31.90625 C 13.285156 -30.75 15.1875 -28.332031 17.5625 -24.65625 C 18.726562 -22.84375 19.820312 -21.023438 20.84375 -19.203125 C 21.863281 -17.390625 22.554688 -16.039062 22.921875 -15.15625 C 23.367188 -14.007812 23.40625 -13.070312 23.03125 -12.34375 C 22.664062 -11.625 21.953125 -10.925781 20.890625 -10.25 C 19.421875 -9.289062 17.972656 -9.140625 16.546875 -9.796875 C 15.128906 -10.460938 13.804688 -11.695312 12.578125 -13.5 C 11.859375 -12.945312 11.285156 -12.535156 10.859375 -12.265625 C 9.984375 -11.703125 9.191406 -11.265625 8.484375 -10.953125 C 9.359375 -9.429688 9.96875 -8.195312 10.3125 -7.25 C 10.664062 -6.300781 10.734375 -5.398438 10.515625 -4.546875 C 10.304688 -3.691406 9.671875 -2.921875 8.609375 -2.234375 Z M 8.609375 -2.234375 "/></g></g></g><g fill="#ffffff" fill-opacity="1"><g transform="translate(126.624749, 215.744991)"><g><path d="M 14.828125 -2.3125 C 11.015625 -0.84375 7.601562 -0.582031 4.59375 -1.53125 C 1.582031 -2.476562 -0.71875 -5.023438 -2.3125 -9.171875 C -3.882812 -13.234375 -4.191406 -16.945312 -3.234375 -20.3125 C -2.273438 -23.6875 0.445312 -26.238281 4.9375 -27.96875 C 7.90625 -29.113281 10.585938 -29.359375 12.984375 -28.703125 C 15.378906 -28.054688 17.398438 -26.800781 19.046875 -24.9375 C 20.703125 -23.082031 22.03125 -20.867188 23.03125 -18.296875 C 24.539062 -14.367188 24.492188 -11.085938 22.890625 -8.453125 C 21.296875 -5.816406 18.609375 -3.769531 14.828125 -2.3125 Z M 11.75 -10.15625 C 12.71875 -10.53125 13.53125 -11.238281 14.1875 -12.28125 C 14.851562 -13.332031 15.140625 -14.488281 15.046875 -15.75 C 15.035156 -16.414062 14.941406 -16.988281 14.765625 -17.46875 C 14.460938 -18.238281 14.015625 -18.8125 13.421875 -19.1875 C 12.828125 -19.5625 12.125 -19.65625 11.3125 -19.46875 C 11.300781 -19.5 11.117188 -19.4375 10.765625 -19.28125 C 10.421875 -19.125 10.09375 -18.863281 9.78125 -18.5 C 9.46875 -18.132812 9.257812 -17.671875 9.15625 -17.109375 C 8.789062 -17.492188 8.382812 -17.71875 7.9375 -17.78125 C 7.488281 -17.851562 7.070312 -17.832031 6.6875 -17.71875 C 6.3125 -17.613281 6.128906 -17.550781 6.140625 -17.53125 C 5.285156 -17.09375 4.738281 -16.507812 4.5 -15.78125 C 4.269531 -15.050781 4.304688 -14.289062 4.609375 -13.5 C 4.773438 -13.050781 5.082031 -12.601562 5.53125 -12.15625 C 6.457031 -11.15625 7.515625 -10.488281 8.703125 -10.15625 C 9.890625 -9.832031 10.90625 -9.832031 11.75 -10.15625 Z M 11.75 -10.15625 "/></g></g></g><g fill="#ffffff" fill-opacity="1"><g transform="translate(151.138626, 206.013459)"><g><path d="M 9.328125 1.765625 C 6.359375 2.273438 4.398438 1.476562 3.453125 -0.625 C 3.015625 -1.59375 2.421875 -3.4375 1.671875 -6.15625 C 0.929688 -8.882812 0.351562 -11.441406 -0.0625 -13.828125 C -0.507812 -16.484375 -0.640625 -18.453125 -0.453125 -19.734375 C -0.109375 -21.578125 0.46875 -22.941406 1.28125 -23.828125 C 2.09375 -24.710938 3.332031 -25.410156 5 -25.921875 C 6.039062 -26.273438 7.273438 -26.578125 8.703125 -26.828125 C 10.398438 -27.117188 12.035156 -27.265625 13.609375 -27.265625 C 15.191406 -27.273438 16.503906 -27.101562 17.546875 -26.75 C 19.554688 -26.070312 21.148438 -25.007812 22.328125 -23.5625 C 23.503906 -22.125 24.285156 -20.265625 24.671875 -17.984375 C 25.128906 -15.335938 25.109375 -13.144531 24.609375 -11.40625 C 24.109375 -9.675781 23.03125 -8.109375 21.375 -6.703125 C 21.375 -6.679688 21.085938 -6.5 20.515625 -6.15625 C 19.941406 -5.8125 19.171875 -5.453125 18.203125 -5.078125 C 17.242188 -4.710938 16.113281 -4.421875 14.8125 -4.203125 C 13.882812 -4.035156 13.160156 -3.929688 12.640625 -3.890625 C 12.847656 -2.191406 12.734375 -0.894531 12.296875 0 C 11.867188 0.90625 10.878906 1.492188 9.328125 1.765625 Z M 13.046875 -10.90625 C 13.796875 -11.03125 14.519531 -11.382812 15.21875 -11.96875 C 15.914062 -12.5625 16.40625 -13.296875 16.6875 -14.171875 C 16.914062 -14.796875 16.96875 -15.457031 16.84375 -16.15625 C 16.757812 -16.675781 16.550781 -17.109375 16.21875 -17.453125 C 15.894531 -17.796875 15.457031 -18.007812 14.90625 -18.09375 C 14.875 -18.125 14.785156 -18.144531 14.640625 -18.15625 C 14.503906 -18.164062 14.332031 -18.15625 14.125 -18.125 C 13.445312 -18.007812 12.921875 -17.625 12.546875 -16.96875 C 12.378906 -17.363281 12.140625 -17.648438 11.828125 -17.828125 C 11.515625 -18.003906 11.210938 -18.109375 10.921875 -18.140625 C 10.628906 -18.171875 10.445312 -18.179688 10.375 -18.171875 C 9.488281 -18.097656 8.84375 -17.75 8.4375 -17.125 C 8.03125 -16.5 7.894531 -15.785156 8.03125 -14.984375 C 8.050781 -14.835938 8.117188 -14.59375 8.234375 -14.25 C 8.691406 -13.070312 9.394531 -12.179688 10.34375 -11.578125 C 11.300781 -10.984375 12.203125 -10.757812 13.046875 -10.90625 Z M 13.046875 -10.90625 "/></g></g></g><g fill="#ffffff" fill-opacity="1"><g transform="translate(176.415467, 201.402303)"><g><path d="M 12.921875 3.40625 C 10.941406 3.363281 9.179688 3.21875 7.640625 2.96875 C 6.097656 2.726562 5.019531 2.367188 4.40625 1.890625 C 3.90625 1.523438 3.523438 0.957031 3.265625 0.1875 C 3.003906 -0.570312 2.816406 -1.578125 2.703125 -2.828125 C 2.523438 -4.929688 2.484375 -7.78125 2.578125 -11.375 C 2.660156 -14.84375 2.835938 -17.238281 3.109375 -18.5625 C 3.273438 -19.664062 3.546875 -20.5625 3.921875 -21.25 C 4.296875 -21.9375 4.796875 -22.410156 5.421875 -22.671875 C 6.242188 -23.046875 7.613281 -23.316406 9.53125 -23.484375 C 11.445312 -23.648438 13.53125 -23.703125 15.78125 -23.640625 C 17.53125 -23.597656 19.15625 -23.492188 20.65625 -23.328125 C 22.164062 -23.160156 23.269531 -22.96875 23.96875 -22.75 C 24.84375 -22.457031 25.503906 -22.019531 25.953125 -21.4375 C 26.410156 -20.851562 26.625 -20.019531 26.59375 -18.9375 C 26.5625 -17.789062 26.328125 -16.863281 25.890625 -16.15625 C 25.460938 -15.445312 24.835938 -14.976562 24.015625 -14.75 C 23.910156 -14.71875 23.648438 -14.660156 23.234375 -14.578125 C 22.828125 -14.503906 22.195312 -14.441406 21.34375 -14.390625 C 20.488281 -14.335938 19.460938 -14.328125 18.265625 -14.359375 C 17.234375 -14.378906 16.078125 -14.445312 14.796875 -14.5625 L 14.765625 -13.453125 C 16.078125 -13.523438 17.289062 -13.546875 18.40625 -13.515625 C 19.601562 -13.484375 20.535156 -13.414062 21.203125 -13.3125 C 21.867188 -13.207031 22.203125 -13.144531 22.203125 -13.125 C 23.054688 -12.820312 23.691406 -12.445312 24.109375 -12 C 24.523438 -11.5625 24.71875 -10.8125 24.6875 -9.75 C 24.65625 -8.65625 24.488281 -7.863281 24.1875 -7.375 C 23.882812 -6.894531 23.273438 -6.5 22.359375 -6.1875 C 22.285156 -6.164062 22.039062 -6.125 21.625 -6.0625 C 21.207031 -6 20.546875 -5.945312 19.640625 -5.90625 C 18.734375 -5.863281 17.597656 -5.863281 16.234375 -5.90625 L 14.75 -5.9375 L 14.734375 -4.9375 L 16.4375 -4.890625 C 18.613281 -4.835938 20.289062 -4.742188 21.46875 -4.609375 C 22.644531 -4.484375 23.234375 -4.410156 23.234375 -4.390625 C 24.003906 -4.191406 24.585938 -3.84375 24.984375 -3.34375 C 25.390625 -2.851562 25.597656 -2.085938 25.609375 -1.046875 C 25.628906 0.210938 25.425781 1.125 25 1.6875 C 24.582031 2.25 23.773438 2.664062 22.578125 2.9375 C 21.773438 3.09375 20.4375 3.222656 18.5625 3.328125 C 16.695312 3.429688 14.816406 3.457031 12.921875 3.40625 Z M 12.921875 3.40625 "/></g></g></g><g fill="#ffffff" fill-opacity="1"><g transform="translate(202.077107, 201.8994)"><g><path d="M 10.359375 5.765625 C 6.921875 5.015625 4.773438 3.828125 3.921875 2.203125 C 2.960938 0.296875 2.984375 -2.945312 3.984375 -7.53125 C 4.390625 -9.414062 4.859375 -11.191406 5.390625 -12.859375 C 5.921875 -14.535156 6.539062 -16.421875 7.25 -18.515625 C 7.707031 -19.765625 8.476562 -20.6875 9.5625 -21.28125 C 10.65625 -21.875 11.796875 -22.039062 12.984375 -21.78125 C 15.179688 -21.300781 16.472656 -20.09375 16.859375 -18.15625 C 17.242188 -16.226562 17.097656 -13.703125 16.421875 -10.578125 C 16.117188 -9.171875 15.644531 -7.234375 15 -4.765625 C 16.601562 -4.523438 17.9375 -4.289062 19 -4.0625 C 21.351562 -3.550781 23.15625 -2.78125 24.40625 -1.75 C 25.664062 -0.71875 26.070312 0.828125 25.625 2.890625 C 25.3125 4.304688 24.804688 5.273438 24.109375 5.796875 C 23.410156 6.316406 22.441406 6.582031 21.203125 6.59375 C 19.847656 6.632812 18.160156 6.601562 16.140625 6.5 C 14.117188 6.40625 12.191406 6.160156 10.359375 5.765625 Z M 10.359375 5.765625 "/></g></g></g><g fill="#ffffff" fill-opacity="1"><g transform="translate(225.416628, 206.808608)"><g><path d="M 9.328125 6.90625 C 7.867188 6.3125 6.570312 5.722656 5.4375 5.140625 C 4.3125 4.554688 3.523438 4.0625 3.078125 3.65625 C 2.429688 3.113281 1.992188 2.359375 1.765625 1.390625 C 1.546875 0.421875 1.660156 -0.601562 2.109375 -1.6875 C 3.347656 -4.707031 5.890625 -5.425781 9.734375 -3.84375 L 10.296875 -5.421875 C 10.929688 -7.234375 11.398438 -8.503906 11.703125 -9.234375 C 11.992188 -9.941406 12.234375 -10.425781 12.421875 -10.6875 C 10.441406 -11.507812 9.125 -12.429688 8.46875 -13.453125 C 7.820312 -14.472656 7.835938 -15.882812 8.515625 -17.6875 C 8.941406 -18.71875 9.570312 -19.523438 10.40625 -20.109375 C 11.25 -20.703125 12.269531 -20.894531 13.46875 -20.6875 C 14.46875 -20.46875 16.3125 -19.800781 19 -18.6875 C 21.34375 -17.71875 23.457031 -16.753906 25.34375 -15.796875 C 27.238281 -14.835938 28.378906 -14.113281 28.765625 -13.625 C 29.253906 -13.007812 29.609375 -12.347656 29.828125 -11.640625 C 30.054688 -10.929688 29.972656 -10.097656 29.578125 -9.140625 C 29.054688 -7.878906 28.441406 -6.976562 27.734375 -6.4375 C 27.035156 -5.90625 26.179688 -5.679688 25.171875 -5.765625 C 24.171875 -5.859375 22.910156 -6.21875 21.390625 -6.84375 C 21.234375 -6.382812 20.984375 -5.734375 20.640625 -4.890625 L 18.484375 0.21875 C 19.890625 0.800781 20.941406 1.328125 21.640625 1.796875 C 22.335938 2.265625 22.785156 2.890625 22.984375 3.671875 C 23.179688 4.460938 23.003906 5.53125 22.453125 6.875 C 22.109375 7.707031 21.535156 8.410156 20.734375 8.984375 C 19.929688 9.566406 19.050781 9.816406 18.09375 9.734375 C 17.300781 9.609375 16.054688 9.273438 14.359375 8.734375 C 12.671875 8.203125 10.992188 7.59375 9.328125 6.90625 Z M 9.328125 6.90625 "/></g></g></g><g fill="#ffffff" fill-opacity="1"><g transform="translate(246.23807, 214.909167)"><g><path d="M 10.5625 10.6875 C 7.132812 8.457031 4.925781 5.835938 3.9375 2.828125 C 2.945312 -0.171875 3.660156 -3.523438 6.078125 -7.234375 C 8.453125 -10.890625 11.285156 -13.316406 14.578125 -14.515625 C 17.878906 -15.710938 21.546875 -14.992188 25.578125 -12.359375 C 28.242188 -10.617188 30.015625 -8.585938 30.890625 -6.265625 C 31.765625 -3.941406 31.929688 -1.566406 31.390625 0.859375 C 30.847656 3.285156 29.820312 5.65625 28.3125 7.96875 C 26.007812 11.5 23.320312 13.382812 20.25 13.625 C 17.1875 13.875 13.957031 12.894531 10.5625 10.6875 Z M 15.109375 3.59375 C 15.984375 4.164062 17.035156 4.410156 18.265625 4.328125 C 19.492188 4.242188 20.597656 3.800781 21.578125 3 C 22.117188 2.59375 22.53125 2.175781 22.8125 1.75 C 23.269531 1.050781 23.472656 0.351562 23.421875 -0.34375 C 23.378906 -1.039062 23.046875 -1.664062 22.421875 -2.21875 C 22.429688 -2.238281 22.265625 -2.34375 21.921875 -2.53125 C 21.585938 -2.71875 21.1875 -2.832031 20.71875 -2.875 C 20.25 -2.925781 19.75 -2.828125 19.21875 -2.578125 C 19.320312 -3.109375 19.269531 -3.570312 19.0625 -3.96875 C 18.851562 -4.363281 18.59375 -4.679688 18.28125 -4.921875 C 17.976562 -5.171875 17.820312 -5.285156 17.8125 -5.265625 C 16.957031 -5.703125 16.160156 -5.800781 15.421875 -5.5625 C 14.691406 -5.332031 14.097656 -4.863281 13.640625 -4.15625 C 13.378906 -3.757812 13.195312 -3.25 13.09375 -2.625 C 12.820312 -1.289062 12.898438 -0.046875 13.328125 1.109375 C 13.753906 2.273438 14.347656 3.101562 15.109375 3.59375 Z M 15.109375 3.59375 "/></g></g></g></svg>